<svg width="147" height="84" viewBox="0 0 147 84" fill="none" xmlns="http://www.w3.org/2000/svg">
<g filter="url(#filter0_d_469_136)">
<rect x="2" y="2" width="143" height="80" rx="10" fill="white"/>
</g>
<path d="M18.9561 17.9512C18.9561 17.834 18.9365 17.7295 18.8975 17.6377C18.8584 17.5459 18.7939 17.4639 18.7041 17.3916C18.6162 17.3174 18.4971 17.249 18.3467 17.1865C18.1982 17.1221 18.0127 17.0586 17.79 16.9961C17.5771 16.9355 17.3848 16.8691 17.2129 16.7969C17.041 16.7246 16.8936 16.6416 16.7705 16.5479C16.6494 16.4541 16.5566 16.3447 16.4922 16.2197C16.4277 16.0928 16.3955 15.9453 16.3955 15.7773C16.3955 15.6133 16.4307 15.4639 16.501 15.3291C16.5713 15.1943 16.6699 15.0781 16.7969 14.9805C16.9258 14.8828 17.0771 14.8076 17.251 14.7549C17.4268 14.7021 17.6191 14.6758 17.8281 14.6758C18.127 14.6758 18.3848 14.7324 18.6016 14.8457C18.8203 14.959 18.9893 15.1123 19.1084 15.3057C19.2295 15.4971 19.29 15.7119 19.29 15.9502H18.9297C18.9297 15.7646 18.8857 15.5996 18.7979 15.4551C18.7119 15.3086 18.5869 15.1943 18.4229 15.1123C18.2607 15.0283 18.0625 14.9863 17.8281 14.9863C17.5938 14.9863 17.3965 15.0225 17.2363 15.0947C17.0781 15.165 16.958 15.2598 16.876 15.3789C16.7959 15.4961 16.7559 15.627 16.7559 15.7715C16.7559 15.873 16.7754 15.9668 16.8145 16.0527C16.8535 16.1367 16.917 16.2158 17.0049 16.29C17.0947 16.3623 17.2129 16.4307 17.3594 16.4951C17.5059 16.5576 17.6865 16.6172 17.9014 16.6738C18.1279 16.7363 18.3291 16.8057 18.5049 16.8818C18.6807 16.958 18.8291 17.0459 18.9502 17.1455C19.0713 17.2432 19.1631 17.3574 19.2256 17.4883C19.2881 17.6191 19.3193 17.7715 19.3193 17.9453C19.3193 18.1191 19.2822 18.2754 19.208 18.4141C19.1357 18.5508 19.0332 18.667 18.9004 18.7627C18.7695 18.8584 18.6143 18.9316 18.4346 18.9824C18.2568 19.0332 18.0625 19.0586 17.8516 19.0586C17.6621 19.0586 17.4736 19.0342 17.2861 18.9854C17.0986 18.9365 16.9268 18.8613 16.7705 18.7598C16.6162 18.6562 16.4922 18.5234 16.3984 18.3613C16.3066 18.1992 16.2607 18.0059 16.2607 17.7812H16.6182C16.6182 17.9609 16.6543 18.1123 16.7266 18.2354C16.7988 18.3584 16.8945 18.458 17.0137 18.5342C17.1348 18.6104 17.2676 18.666 17.4121 18.7012C17.5586 18.7344 17.7051 18.751 17.8516 18.751C18.0762 18.751 18.2705 18.7178 18.4346 18.6514C18.6006 18.585 18.7285 18.4922 18.8184 18.373C18.9102 18.252 18.9561 18.1113 18.9561 17.9512ZM21.2148 15.8301V16.1172H19.627V15.8301H21.2148ZM20.21 15.0156H20.5586V18.2295C20.5586 18.376 20.5781 18.4863 20.6172 18.5605C20.6562 18.6348 20.707 18.6846 20.7695 18.71C20.832 18.7354 20.8994 18.748 20.9717 18.748C21.0244 18.748 21.0752 18.7451 21.124 18.7393C21.1729 18.7314 21.2168 18.7236 21.2559 18.7158L21.2705 19.0117C21.2275 19.0254 21.1719 19.0361 21.1035 19.0439C21.0352 19.0537 20.9668 19.0586 20.8984 19.0586C20.7637 19.0586 20.6445 19.0342 20.541 18.9854C20.4375 18.9346 20.3564 18.8486 20.2979 18.7275C20.2393 18.6045 20.21 18.4375 20.21 18.2266V15.0156ZM23.8779 18.4316V16.7969C23.8779 16.6465 23.8467 16.5166 23.7842 16.4072C23.7217 16.2979 23.6299 16.2139 23.5088 16.1553C23.3877 16.0967 23.2383 16.0674 23.0605 16.0674C22.8965 16.0674 22.75 16.0967 22.6211 16.1553C22.4941 16.2119 22.3936 16.2891 22.3193 16.3867C22.2471 16.4824 22.2109 16.5889 22.2109 16.7061L21.8594 16.7031C21.8594 16.584 21.8887 16.4688 21.9473 16.3574C22.0059 16.2461 22.0889 16.1465 22.1963 16.0586C22.3037 15.9707 22.4316 15.9014 22.5801 15.8506C22.7305 15.7979 22.8955 15.7715 23.0752 15.7715C23.3018 15.7715 23.501 15.8096 23.6729 15.8857C23.8467 15.9619 23.9824 16.0762 24.0801 16.2285C24.1777 16.3809 24.2266 16.5723 24.2266 16.8027V18.335C24.2266 18.4443 24.2344 18.5576 24.25 18.6748C24.2676 18.792 24.292 18.8887 24.3232 18.9648V19H23.9512C23.9277 18.9297 23.9092 18.8418 23.8955 18.7363C23.8838 18.6289 23.8779 18.5273 23.8779 18.4316ZM23.96 17.1543L23.9658 17.4238H23.2773C23.0977 17.4238 22.9365 17.4404 22.7939 17.4736C22.6533 17.5049 22.5342 17.5518 22.4365 17.6143C22.3389 17.6748 22.2637 17.748 22.2109 17.834C22.1602 17.9199 22.1348 18.0176 22.1348 18.127C22.1348 18.2402 22.1631 18.3438 22.2197 18.4375C22.2783 18.5312 22.3604 18.6064 22.4658 18.6631C22.5732 18.7178 22.7002 18.7451 22.8467 18.7451C23.042 18.7451 23.2139 18.709 23.3623 18.6367C23.5127 18.5645 23.6367 18.4697 23.7344 18.3525C23.832 18.2354 23.8975 18.1074 23.9307 17.9688L24.083 18.1709C24.0576 18.2686 24.0107 18.3691 23.9424 18.4727C23.876 18.5742 23.7891 18.6699 23.6816 18.7598C23.5742 18.8477 23.4473 18.9199 23.3008 18.9766C23.1562 19.0312 22.9922 19.0586 22.8086 19.0586C22.6016 19.0586 22.4209 19.0195 22.2666 18.9414C22.1143 18.8633 21.9951 18.7568 21.9092 18.6221C21.8252 18.4854 21.7832 18.3311 21.7832 18.1592C21.7832 18.0029 21.8164 17.8633 21.8828 17.7402C21.9492 17.6152 22.0449 17.5098 22.1699 17.4238C22.2969 17.3359 22.4492 17.2695 22.627 17.2246C22.8066 17.1777 23.0078 17.1543 23.2305 17.1543H23.96ZM25.5156 16.3545V19H25.167V15.8301H25.5068L25.5156 16.3545ZM26.6377 15.8066L26.6289 16.1289C26.5898 16.123 26.5518 16.1182 26.5146 16.1143C26.4775 16.1104 26.4375 16.1084 26.3945 16.1084C26.2422 16.1084 26.1084 16.1367 25.9932 16.1934C25.8799 16.248 25.7842 16.3252 25.7061 16.4248C25.6279 16.5225 25.5684 16.6377 25.5273 16.7705C25.4863 16.9014 25.4629 17.042 25.457 17.1924L25.3281 17.2422C25.3281 17.0352 25.3496 16.8428 25.3926 16.665C25.4355 16.4873 25.501 16.332 25.5889 16.1992C25.6787 16.0645 25.791 15.96 25.9258 15.8857C26.0625 15.8096 26.2227 15.7715 26.4062 15.7715C26.4512 15.7715 26.4951 15.7754 26.5381 15.7832C26.583 15.7891 26.6162 15.7969 26.6377 15.8066ZM28.5332 15.8301V16.1172H26.9453V15.8301H28.5332ZM27.5283 15.0156H27.877V18.2295C27.877 18.376 27.8965 18.4863 27.9355 18.5605C27.9746 18.6348 28.0254 18.6846 28.0879 18.71C28.1504 18.7354 28.2178 18.748 28.29 18.748C28.3428 18.748 28.3936 18.7451 28.4424 18.7393C28.4912 18.7314 28.5352 18.7236 28.5742 18.7158L28.5889 19.0117C28.5459 19.0254 28.4902 19.0361 28.4219 19.0439C28.3535 19.0537 28.2852 19.0586 28.2168 19.0586C28.082 19.0586 27.9629 19.0342 27.8594 18.9854C27.7559 18.9346 27.6748 18.8486 27.6162 18.7275C27.5576 18.6045 27.5283 18.4375 27.5283 18.2266V15.0156ZM32.793 18.3848V14.5H33.1445V19H32.8164L32.793 18.3848ZM30.5928 17.4473V17.3857C30.5928 17.1396 30.6211 16.918 30.6777 16.7207C30.7344 16.5215 30.8154 16.3516 30.9209 16.2109C31.0283 16.0684 31.1572 15.96 31.3076 15.8857C31.458 15.8096 31.6279 15.7715 31.8174 15.7715C32.0029 15.7715 32.167 15.8018 32.3096 15.8623C32.4521 15.9229 32.5742 16.0098 32.6758 16.123C32.7793 16.2363 32.8623 16.3711 32.9248 16.5273C32.9893 16.6836 33.0361 16.8574 33.0654 17.0488V17.8311C33.042 18.0107 32.999 18.1758 32.9365 18.3262C32.874 18.4746 32.791 18.6045 32.6875 18.7158C32.584 18.8252 32.459 18.9102 32.3125 18.9707C32.168 19.0293 32.001 19.0586 31.8115 19.0586C31.624 19.0586 31.4551 19.0195 31.3047 18.9414C31.1543 18.8633 31.0264 18.7529 30.9209 18.6104C30.8154 18.4658 30.7344 18.2949 30.6777 18.0977C30.6211 17.9004 30.5928 17.6836 30.5928 17.4473ZM30.9443 17.3857V17.4473C30.9443 17.6328 30.9629 17.8047 31 17.9629C31.0371 18.1211 31.0938 18.2588 31.1699 18.376C31.2461 18.4932 31.3428 18.585 31.46 18.6514C31.5771 18.7178 31.7158 18.751 31.876 18.751C32.0771 18.751 32.2461 18.7129 32.3828 18.6367C32.5195 18.5586 32.6289 18.4561 32.7109 18.3291C32.793 18.2002 32.8525 18.0596 32.8896 17.9072V16.9961C32.8662 16.8926 32.832 16.7871 32.7871 16.6797C32.7422 16.5723 32.6807 16.4736 32.6025 16.3838C32.5264 16.292 32.4287 16.2188 32.3096 16.1641C32.1924 16.1074 32.0498 16.0791 31.8818 16.0791C31.7197 16.0791 31.5801 16.1123 31.4629 16.1787C31.3457 16.2451 31.248 16.3379 31.1699 16.457C31.0938 16.5742 31.0371 16.7119 31 16.8701C30.9629 17.0283 30.9443 17.2002 30.9443 17.3857ZM35.9951 18.4316V16.7969C35.9951 16.6465 35.9639 16.5166 35.9014 16.4072C35.8389 16.2979 35.7471 16.2139 35.626 16.1553C35.5049 16.0967 35.3555 16.0674 35.1777 16.0674C35.0137 16.0674 34.8672 16.0967 34.7383 16.1553C34.6113 16.2119 34.5107 16.2891 34.4365 16.3867C34.3643 16.4824 34.3281 16.5889 34.3281 16.7061L33.9766 16.7031C33.9766 16.584 34.0059 16.4688 34.0645 16.3574C34.123 16.2461 34.2061 16.1465 34.3135 16.0586C34.4209 15.9707 34.5488 15.9014 34.6973 15.8506C34.8477 15.7979 35.0127 15.7715 35.1924 15.7715C35.4189 15.7715 35.6182 15.8096 35.79 15.8857C35.9639 15.9619 36.0996 16.0762 36.1973 16.2285C36.2949 16.3809 36.3438 16.5723 36.3438 16.8027V18.335C36.3438 18.4443 36.3516 18.5576 36.3672 18.6748C36.3848 18.792 36.4092 18.8887 36.4404 18.9648V19H36.0684C36.0449 18.9297 36.0264 18.8418 36.0127 18.7363C36.001 18.6289 35.9951 18.5273 35.9951 18.4316ZM36.0771 17.1543L36.083 17.4238H35.3945C35.2148 17.4238 35.0537 17.4404 34.9111 17.4736C34.7705 17.5049 34.6514 17.5518 34.5537 17.6143C34.4561 17.6748 34.3809 17.748 34.3281 17.834C34.2773 17.9199 34.252 18.0176 34.252 18.127C34.252 18.2402 34.2803 18.3438 34.3369 18.4375C34.3955 18.5312 34.4775 18.6064 34.583 18.6631C34.6904 18.7178 34.8174 18.7451 34.9639 18.7451C35.1592 18.7451 35.3311 18.709 35.4795 18.6367C35.6299 18.5645 35.7539 18.4697 35.8516 18.3525C35.9492 18.2354 36.0146 18.1074 36.0479 17.9688L36.2002 18.1709C36.1748 18.2686 36.1279 18.3691 36.0596 18.4727C35.9932 18.5742 35.9062 18.6699 35.7988 18.7598C35.6914 18.8477 35.5645 18.9199 35.418 18.9766C35.2734 19.0312 35.1094 19.0586 34.9258 19.0586C34.7188 19.0586 34.5381 19.0195 34.3838 18.9414C34.2314 18.8633 34.1123 18.7568 34.0264 18.6221C33.9424 18.4854 33.9004 18.3311 33.9004 18.1592C33.9004 18.0029 33.9336 17.8633 34 17.7402C34.0664 17.6152 34.1621 17.5098 34.2871 17.4238C34.4141 17.3359 34.5664 17.2695 34.7441 17.2246C34.9238 17.1777 35.125 17.1543 35.3477 17.1543H36.0771ZM38.4824 15.8301V16.1172H36.8945V15.8301H38.4824ZM37.4775 15.0156H37.8262V18.2295C37.8262 18.376 37.8457 18.4863 37.8848 18.5605C37.9238 18.6348 37.9746 18.6846 38.0371 18.71C38.0996 18.7354 38.167 18.748 38.2393 18.748C38.292 18.748 38.3428 18.7451 38.3916 18.7393C38.4404 18.7314 38.4844 18.7236 38.5234 18.7158L38.5381 19.0117C38.4951 19.0254 38.4395 19.0361 38.3711 19.0439C38.3027 19.0537 38.2344 19.0586 38.166 19.0586C38.0312 19.0586 37.9121 19.0342 37.8086 18.9854C37.7051 18.9346 37.624 18.8486 37.5654 18.7275C37.5068 18.6045 37.4775 18.4375 37.4775 18.2266V15.0156ZM40.4424 19.0586C40.2354 19.0586 40.0449 19.0205 39.8711 18.9443C39.6992 18.8682 39.5488 18.7607 39.4199 18.6221C39.293 18.4834 39.1943 18.3193 39.124 18.1299C39.0557 17.9385 39.0215 17.7295 39.0215 17.5029V17.377C39.0215 17.1328 39.0576 16.9121 39.1299 16.7148C39.2021 16.5176 39.3018 16.3486 39.4287 16.208C39.5557 16.0674 39.7002 15.96 39.8623 15.8857C40.0264 15.8096 40.1982 15.7715 40.3779 15.7715C40.5791 15.7715 40.7578 15.8076 40.9141 15.8799C41.0703 15.9502 41.2012 16.0508 41.3066 16.1816C41.4141 16.3105 41.4951 16.4639 41.5498 16.6416C41.6045 16.8174 41.6318 17.0117 41.6318 17.2246V17.4385H39.2324V17.1396H41.2832V17.0986C41.2793 16.9209 41.2432 16.7549 41.1748 16.6006C41.1084 16.4443 41.0088 16.3174 40.876 16.2197C40.7432 16.1221 40.5771 16.0732 40.3779 16.0732C40.2295 16.0732 40.0928 16.1045 39.9678 16.167C39.8447 16.2295 39.7383 16.3193 39.6484 16.4365C39.5605 16.5518 39.4922 16.6895 39.4434 16.8496C39.3965 17.0078 39.373 17.1836 39.373 17.377V17.5029C39.373 17.6787 39.3984 17.8428 39.4492 17.9951C39.502 18.1455 39.5762 18.2783 39.6719 18.3936C39.7695 18.5088 39.8848 18.5986 40.0176 18.6631C40.1504 18.7275 40.2969 18.7598 40.457 18.7598C40.6445 18.7598 40.8105 18.7256 40.9551 18.6572C41.0996 18.5869 41.2295 18.4766 41.3447 18.3262L41.5645 18.4961C41.4961 18.5977 41.4102 18.6914 41.3066 18.7773C41.2051 18.8633 41.083 18.9316 40.9404 18.9824C40.7979 19.0332 40.6318 19.0586 40.4424 19.0586ZM45.7158 18.4316V16.7969C45.7158 16.6465 45.6846 16.5166 45.6221 16.4072C45.5596 16.2979 45.4678 16.2139 45.3467 16.1553C45.2256 16.0967 45.0762 16.0674 44.8984 16.0674C44.7344 16.0674 44.5879 16.0967 44.459 16.1553C44.332 16.2119 44.2314 16.2891 44.1572 16.3867C44.085 16.4824 44.0488 16.5889 44.0488 16.7061L43.6973 16.7031C43.6973 16.584 43.7266 16.4688 43.7852 16.3574C43.8438 16.2461 43.9268 16.1465 44.0342 16.0586C44.1416 15.9707 44.2695 15.9014 44.418 15.8506C44.5684 15.7979 44.7334 15.7715 44.9131 15.7715C45.1396 15.7715 45.3389 15.8096 45.5107 15.8857C45.6846 15.9619 45.8203 16.0762 45.918 16.2285C46.0156 16.3809 46.0645 16.5723 46.0645 16.8027V18.335C46.0645 18.4443 46.0723 18.5576 46.0879 18.6748C46.1055 18.792 46.1299 18.8887 46.1611 18.9648V19H45.7891C45.7656 18.9297 45.7471 18.8418 45.7334 18.7363C45.7217 18.6289 45.7158 18.5273 45.7158 18.4316ZM45.7979 17.1543L45.8037 17.4238H45.1152C44.9355 17.4238 44.7744 17.4404 44.6318 17.4736C44.4912 17.5049 44.3721 17.5518 44.2744 17.6143C44.1768 17.6748 44.1016 17.748 44.0488 17.834C43.998 17.9199 43.9727 18.0176 43.9727 18.127C43.9727 18.2402 44.001 18.3438 44.0576 18.4375C44.1162 18.5312 44.1982 18.6064 44.3037 18.6631C44.4111 18.7178 44.5381 18.7451 44.6846 18.7451C44.8799 18.7451 45.0518 18.709 45.2002 18.6367C45.3506 18.5645 45.4746 18.4697 45.5723 18.3525C45.6699 18.2354 45.7354 18.1074 45.7686 17.9688L45.9209 18.1709C45.8955 18.2686 45.8486 18.3691 45.7803 18.4727C45.7139 18.5742 45.627 18.6699 45.5195 18.7598C45.4121 18.8477 45.2852 18.9199 45.1387 18.9766C44.9941 19.0312 44.8301 19.0586 44.6465 19.0586C44.4395 19.0586 44.2588 19.0195 44.1045 18.9414C43.9521 18.8633 43.833 18.7568 43.7471 18.6221C43.6631 18.4854 43.6211 18.3311 43.6211 18.1592C43.6211 18.0029 43.6543 17.8633 43.7207 17.7402C43.7871 17.6152 43.8828 17.5098 44.0078 17.4238C44.1348 17.3359 44.2871 17.2695 44.4648 17.2246C44.6445 17.1777 44.8457 17.1543 45.0684 17.1543H45.7979ZM47.3535 16.5068V19H47.0049V15.8301H47.3389L47.3535 16.5068ZM47.2744 17.2188L47.1191 17.1309C47.1309 16.9434 47.1689 16.7676 47.2334 16.6035C47.2979 16.4395 47.3848 16.2949 47.4941 16.1699C47.6055 16.0449 47.7354 15.9473 47.8838 15.877C48.0342 15.8066 48.2002 15.7715 48.3818 15.7715C48.54 15.7715 48.6816 15.793 48.8066 15.8359C48.9316 15.8789 49.0381 15.9473 49.126 16.041C49.2139 16.1348 49.2803 16.2549 49.3252 16.4014C49.3721 16.5479 49.3955 16.7266 49.3955 16.9375V19H49.0439V16.9346C49.0439 16.7158 49.0137 16.5449 48.9531 16.4219C48.8926 16.2969 48.8066 16.208 48.6953 16.1553C48.584 16.1025 48.4521 16.0762 48.2998 16.0762C48.1318 16.0762 47.9844 16.1133 47.8574 16.1875C47.7324 16.2598 47.627 16.3545 47.541 16.4717C47.457 16.5869 47.3926 16.7109 47.3477 16.8438C47.3027 16.9746 47.2783 17.0996 47.2744 17.2188ZM52.3633 18.3848V14.5H52.7148V19H52.3867L52.3633 18.3848ZM50.1631 17.4473V17.3857C50.1631 17.1396 50.1914 16.918 50.248 16.7207C50.3047 16.5215 50.3857 16.3516 50.4912 16.2109C50.5986 16.0684 50.7275 15.96 50.8779 15.8857C51.0283 15.8096 51.1982 15.7715 51.3877 15.7715C51.5732 15.7715 51.7373 15.8018 51.8799 15.8623C52.0225 15.9229 52.1445 16.0098 52.2461 16.123C52.3496 16.2363 52.4326 16.3711 52.4951 16.5273C52.5596 16.6836 52.6064 16.8574 52.6357 17.0488V17.8311C52.6123 18.0107 52.5693 18.1758 52.5068 18.3262C52.4443 18.4746 52.3613 18.6045 52.2578 18.7158C52.1543 18.8252 52.0293 18.9102 51.8828 18.9707C51.7383 19.0293 51.5713 19.0586 51.3818 19.0586C51.1943 19.0586 51.0254 19.0195 50.875 18.9414C50.7246 18.8633 50.5967 18.7529 50.4912 18.6104C50.3857 18.4658 50.3047 18.2949 50.248 18.0977C50.1914 17.9004 50.1631 17.6836 50.1631 17.4473ZM50.5146 17.3857V17.4473C50.5146 17.6328 50.5332 17.8047 50.5703 17.9629C50.6074 18.1211 50.6641 18.2588 50.7402 18.376C50.8164 18.4932 50.9131 18.585 51.0303 18.6514C51.1475 18.7178 51.2861 18.751 51.4463 18.751C51.6475 18.751 51.8164 18.7129 51.9531 18.6367C52.0898 18.5586 52.1992 18.4561 52.2812 18.3291C52.3633 18.2002 52.4229 18.0596 52.46 17.9072V16.9961C52.4365 16.8926 52.4023 16.7871 52.3574 16.6797C52.3125 16.5723 52.251 16.4736 52.1729 16.3838C52.0967 16.292 51.999 16.2188 51.8799 16.1641C51.7627 16.1074 51.6201 16.0791 51.4521 16.0791C51.29 16.0791 51.1504 16.1123 51.0332 16.1787C50.916 16.2451 50.8184 16.3379 50.7402 16.457C50.6641 16.5742 50.6074 16.7119 50.5703 16.8701C50.5332 17.0283 50.5146 17.2002 50.5146 17.3857ZM56.3008 15.8301V16.1172H54.7129V15.8301H56.3008ZM55.2959 15.0156H55.6445V18.2295C55.6445 18.376 55.6641 18.4863 55.7031 18.5605C55.7422 18.6348 55.793 18.6846 55.8555 18.71C55.918 18.7354 55.9854 18.748 56.0576 18.748C56.1104 18.748 56.1611 18.7451 56.21 18.7393C56.2588 18.7314 56.3027 18.7236 56.3418 18.7158L56.3564 19.0117C56.3135 19.0254 56.2578 19.0361 56.1895 19.0439C56.1211 19.0537 56.0527 19.0586 55.9844 19.0586C55.8496 19.0586 55.7305 19.0342 55.627 18.9854C55.5234 18.9346 55.4424 18.8486 55.3838 18.7275C55.3252 18.6045 55.2959 18.4375 55.2959 18.2266V15.0156ZM57.4258 15.8301V19H57.0771V15.8301H57.4258ZM57.0156 14.9131C57.0156 14.8467 57.0361 14.791 57.0771 14.7461C57.1201 14.6992 57.1787 14.6758 57.2529 14.6758C57.3271 14.6758 57.3857 14.6992 57.4287 14.7461C57.4736 14.791 57.4961 14.8467 57.4961 14.9131C57.4961 14.9775 57.4736 15.0332 57.4287 15.0801C57.3857 15.125 57.3271 15.1475 57.2529 15.1475C57.1787 15.1475 57.1201 15.125 57.0771 15.0801C57.0361 15.0332 57.0156 14.9775 57.0156 14.9131ZM58.7148 16.4863V19H58.3633V15.8301H58.7002L58.7148 16.4863ZM58.6504 17.2188L58.4805 17.1309C58.4922 16.9434 58.5273 16.7676 58.5859 16.6035C58.6465 16.4395 58.7305 16.2949 58.8379 16.1699C58.9453 16.0449 59.0742 15.9473 59.2246 15.877C59.375 15.8066 59.5459 15.7715 59.7373 15.7715C59.8916 15.7715 60.0312 15.793 60.1562 15.8359C60.2832 15.877 60.3906 15.9424 60.4785 16.0322C60.5684 16.1201 60.6377 16.2354 60.6865 16.3779C60.7354 16.5205 60.7598 16.6914 60.7598 16.8906V19H60.4111V16.9023C60.4111 16.6914 60.3779 16.5264 60.3115 16.4072C60.2471 16.2881 60.1562 16.2031 60.0391 16.1523C59.9238 16.1016 59.79 16.0762 59.6377 16.0762C59.458 16.0762 59.3057 16.1133 59.1807 16.1875C59.0576 16.2598 58.957 16.3545 58.8789 16.4717C58.8027 16.5869 58.7461 16.7109 58.709 16.8438C58.6719 16.9746 58.6523 17.0996 58.6504 17.2188ZM60.7568 16.9434L60.5225 16.9492C60.5322 16.7949 60.5674 16.6475 60.6279 16.5068C60.6904 16.3662 60.7754 16.2412 60.8828 16.1318C60.9902 16.0205 61.1182 15.9326 61.2666 15.8682C61.417 15.8037 61.5859 15.7715 61.7734 15.7715C61.9375 15.7715 62.084 15.7939 62.2129 15.8389C62.3418 15.8818 62.4502 15.9512 62.5381 16.0469C62.6279 16.1406 62.6963 16.2607 62.7432 16.4072C62.79 16.5537 62.8135 16.7295 62.8135 16.9346V19H62.4619V16.9316C62.4619 16.707 62.4287 16.5332 62.3623 16.4102C62.2979 16.2852 62.208 16.1982 62.0928 16.1494C61.9775 16.1006 61.8428 16.0762 61.6885 16.0762C61.5361 16.0781 61.4023 16.1064 61.2871 16.1611C61.1719 16.2139 61.0752 16.2842 60.9971 16.3721C60.9209 16.458 60.8623 16.5508 60.8213 16.6504C60.7822 16.75 60.7607 16.8477 60.7568 16.9434ZM64.9287 19.0586C64.7217 19.0586 64.5312 19.0205 64.3574 18.9443C64.1855 18.8682 64.0352 18.7607 63.9062 18.6221C63.7793 18.4834 63.6807 18.3193 63.6104 18.1299C63.542 17.9385 63.5078 17.7295 63.5078 17.5029V17.377C63.5078 17.1328 63.5439 16.9121 63.6162 16.7148C63.6885 16.5176 63.7881 16.3486 63.915 16.208C64.042 16.0674 64.1865 15.96 64.3486 15.8857C64.5127 15.8096 64.6846 15.7715 64.8643 15.7715C65.0654 15.7715 65.2441 15.8076 65.4004 15.8799C65.5566 15.9502 65.6875 16.0508 65.793 16.1816C65.9004 16.3105 65.9814 16.4639 66.0361 16.6416C66.0908 16.8174 66.1182 17.0117 66.1182 17.2246V17.4385H63.7188V17.1396H65.7695V17.0986C65.7656 16.9209 65.7295 16.7549 65.6611 16.6006C65.5947 16.4443 65.4951 16.3174 65.3623 16.2197C65.2295 16.1221 65.0635 16.0732 64.8643 16.0732C64.7158 16.0732 64.5791 16.1045 64.4541 16.167C64.3311 16.2295 64.2246 16.3193 64.1348 16.4365C64.0469 16.5518 63.9785 16.6895 63.9297 16.8496C63.8828 17.0078 63.8594 17.1836 63.8594 17.377V17.5029C63.8594 17.6787 63.8848 17.8428 63.9355 17.9951C63.9883 18.1455 64.0625 18.2783 64.1582 18.3936C64.2559 18.5088 64.3711 18.5986 64.5039 18.6631C64.6367 18.7275 64.7832 18.7598 64.9434 18.7598C65.1309 18.7598 65.2969 18.7256 65.4414 18.6572C65.5859 18.5869 65.7158 18.4766 65.8311 18.3262L66.0508 18.4961C65.9824 18.5977 65.8965 18.6914 65.793 18.7773C65.6914 18.8633 65.5693 18.9316 65.4268 18.9824C65.2842 19.0332 65.1182 19.0586 64.9287 19.0586Z" fill="black"/>
<rect x="94" y="12" width="31" height="10" rx="5" fill="white"/>
<rect x="94.1" y="12.1" width="30.8" height="9.8" rx="4.9" stroke="black" stroke-opacity="0.5" stroke-width="0.2"/>
<rect x="47" y="34" width="16" height="36" rx="5" fill="#88D4AB"/>
<path d="M100.021 16.9404V14.4453H100.322V16.9404C100.322 17.1797 100.275 17.3815 100.18 17.5459C100.087 17.7103 99.9604 17.8356 99.7993 17.9219C99.6382 18.0065 99.4543 18.0488 99.2476 18.0488C99.036 18.0488 98.8488 18.0114 98.686 17.9365C98.5249 17.8617 98.3996 17.7485 98.3101 17.5972C98.2205 17.4442 98.1758 17.2513 98.1758 17.0186H98.4761C98.4761 17.1895 98.5062 17.3327 98.5664 17.4482C98.6283 17.5622 98.717 17.6484 98.8325 17.707C98.9481 17.764 99.0864 17.7925 99.2476 17.7925C99.3924 17.7925 99.5226 17.7607 99.6382 17.6973C99.7554 17.6322 99.8481 17.5369 99.9165 17.4116C99.9865 17.2847 100.021 17.1276 100.021 16.9404ZM102.744 17.5264V16.1641C102.744 16.0387 102.718 15.9305 102.666 15.8394C102.613 15.7482 102.537 15.6782 102.436 15.6294C102.335 15.5806 102.211 15.5562 102.062 15.5562C101.926 15.5562 101.804 15.5806 101.696 15.6294C101.59 15.6766 101.507 15.7409 101.445 15.8223C101.385 15.902 101.354 15.9907 101.354 16.0884L101.062 16.0859C101.062 15.9867 101.086 15.8906 101.135 15.7979C101.184 15.7051 101.253 15.6221 101.342 15.5488C101.432 15.4756 101.538 15.4178 101.662 15.3755C101.787 15.3315 101.925 15.3096 102.075 15.3096C102.264 15.3096 102.43 15.3413 102.573 15.4048C102.718 15.4683 102.831 15.5635 102.912 15.6904C102.993 15.8174 103.034 15.9769 103.034 16.1689V17.4458C103.034 17.5369 103.041 17.6313 103.054 17.729C103.068 17.8267 103.089 17.9072 103.115 17.9707V18H102.805C102.785 17.9414 102.77 17.8682 102.758 17.7803C102.749 17.6908 102.744 17.6061 102.744 17.5264ZM102.812 16.4619L102.817 16.6865H102.243C102.093 16.6865 101.959 16.7004 101.84 16.728C101.723 16.7541 101.624 16.7931 101.542 16.8452C101.461 16.8957 101.398 16.9567 101.354 17.0283C101.312 17.0999 101.291 17.1813 101.291 17.2725C101.291 17.3669 101.315 17.4531 101.362 17.5312C101.411 17.6094 101.479 17.672 101.567 17.7192C101.656 17.7648 101.762 17.7876 101.884 17.7876C102.047 17.7876 102.19 17.7575 102.314 17.6973C102.439 17.637 102.543 17.5581 102.624 17.4604C102.705 17.3628 102.76 17.2562 102.788 17.1406L102.915 17.3091C102.893 17.3905 102.854 17.4743 102.797 17.5605C102.742 17.6452 102.67 17.7249 102.58 17.7998C102.491 17.873 102.385 17.9333 102.263 17.9805C102.142 18.026 102.006 18.0488 101.853 18.0488C101.68 18.0488 101.529 18.0163 101.401 17.9512C101.274 17.8861 101.175 17.7974 101.103 17.6851C101.033 17.5711 100.998 17.4425 100.998 17.2993C100.998 17.1691 101.026 17.0527 101.081 16.9502C101.136 16.846 101.216 16.7581 101.32 16.6865C101.426 16.6133 101.553 16.5579 101.701 16.5205C101.851 16.4814 102.019 16.4619 102.204 16.4619H102.812ZM104.108 15.9224V18H103.818V15.3584H104.096L104.108 15.9224ZM104.042 16.5156L103.913 16.4424C103.923 16.2861 103.955 16.1396 104.008 16.0029C104.062 15.8662 104.134 15.7458 104.226 15.6416C104.318 15.5374 104.427 15.4561 104.55 15.3975C104.676 15.3389 104.814 15.3096 104.965 15.3096C105.097 15.3096 105.215 15.3275 105.319 15.3633C105.424 15.3991 105.512 15.4561 105.585 15.5342C105.659 15.6123 105.714 15.7124 105.751 15.8345C105.791 15.9565 105.81 16.1055 105.81 16.2812V18H105.517V16.2788C105.517 16.0965 105.492 15.9541 105.441 15.8516C105.391 15.7474 105.319 15.6733 105.227 15.6294C105.134 15.5854 105.024 15.5635 104.897 15.5635C104.757 15.5635 104.634 15.5944 104.528 15.6562C104.424 15.7165 104.336 15.7954 104.265 15.8931C104.195 15.9891 104.141 16.0924 104.104 16.2031C104.066 16.3122 104.046 16.4163 104.042 16.5156ZM108.259 17.3896V15.3584H108.552V18H108.271L108.259 17.3896ZM108.312 16.9014L108.464 16.8965C108.464 17.0625 108.444 17.2155 108.405 17.3555C108.366 17.4954 108.305 17.6175 108.222 17.7217C108.139 17.8258 108.032 17.9064 107.9 17.9634C107.768 18.0203 107.609 18.0488 107.424 18.0488C107.295 18.0488 107.177 18.0309 107.07 17.9951C106.964 17.9577 106.873 17.8991 106.796 17.8193C106.72 17.7396 106.66 17.6362 106.618 17.5093C106.577 17.3823 106.557 17.2285 106.557 17.0479V15.3584H106.848V17.0527C106.848 17.1943 106.863 17.3123 106.894 17.4067C106.927 17.5011 106.971 17.5768 107.026 17.6338C107.083 17.6908 107.148 17.7314 107.221 17.7559C107.294 17.7803 107.373 17.7925 107.458 17.7925C107.673 17.7925 107.842 17.751 107.966 17.668C108.091 17.585 108.18 17.4759 108.232 17.3408C108.286 17.2041 108.312 17.0576 108.312 16.9014ZM110.922 17.5264V16.1641C110.922 16.0387 110.896 15.9305 110.844 15.8394C110.792 15.7482 110.716 15.6782 110.615 15.6294C110.514 15.5806 110.389 15.5562 110.241 15.5562C110.104 15.5562 109.982 15.5806 109.875 15.6294C109.769 15.6766 109.685 15.7409 109.624 15.8223C109.563 15.902 109.533 15.9907 109.533 16.0884L109.24 16.0859C109.24 15.9867 109.265 15.8906 109.313 15.7979C109.362 15.7051 109.431 15.6221 109.521 15.5488C109.611 15.4756 109.717 15.4178 109.841 15.3755C109.966 15.3315 110.104 15.3096 110.253 15.3096C110.442 15.3096 110.608 15.3413 110.751 15.4048C110.896 15.4683 111.009 15.5635 111.091 15.6904C111.172 15.8174 111.213 15.9769 111.213 16.1689V17.4458C111.213 17.5369 111.219 17.6313 111.232 17.729C111.247 17.8267 111.267 17.9072 111.293 17.9707V18H110.983C110.964 17.9414 110.948 17.8682 110.937 17.7803C110.927 17.6908 110.922 17.6061 110.922 17.5264ZM110.991 16.4619L110.996 16.6865H110.422C110.272 16.6865 110.138 16.7004 110.019 16.728C109.902 16.7541 109.803 16.7931 109.721 16.8452C109.64 16.8957 109.577 16.9567 109.533 17.0283C109.491 17.0999 109.47 17.1813 109.47 17.2725C109.47 17.3669 109.493 17.4531 109.541 17.5312C109.589 17.6094 109.658 17.672 109.746 17.7192C109.835 17.7648 109.941 17.7876 110.063 17.7876C110.226 17.7876 110.369 17.7575 110.493 17.6973C110.618 17.637 110.721 17.5581 110.803 17.4604C110.884 17.3628 110.939 17.2562 110.966 17.1406L111.093 17.3091C111.072 17.3905 111.033 17.4743 110.976 17.5605C110.921 17.6452 110.848 17.7249 110.759 17.7998C110.669 17.873 110.563 17.9333 110.441 17.9805C110.321 18.026 110.184 18.0488 110.031 18.0488C109.859 18.0488 109.708 18.0163 109.58 17.9512C109.453 17.8861 109.353 17.7974 109.282 17.6851C109.212 17.5711 109.177 17.4425 109.177 17.2993C109.177 17.1691 109.204 17.0527 109.26 16.9502C109.315 16.846 109.395 16.7581 109.499 16.6865C109.605 16.6133 109.732 16.5579 109.88 16.5205C110.03 16.4814 110.197 16.4619 110.383 16.4619H110.991ZM112.287 15.7954V18H111.997V15.3584H112.28L112.287 15.7954ZM113.222 15.3389L113.215 15.6074C113.182 15.6025 113.151 15.5985 113.12 15.5952C113.089 15.592 113.055 15.5903 113.02 15.5903C112.893 15.5903 112.781 15.6139 112.685 15.6611C112.591 15.7067 112.511 15.771 112.446 15.854C112.381 15.9354 112.331 16.0314 112.297 16.1421C112.263 16.2511 112.243 16.3683 112.238 16.4937L112.131 16.5352C112.131 16.3626 112.149 16.2023 112.185 16.0542C112.22 15.9061 112.275 15.7767 112.348 15.666C112.423 15.5537 112.517 15.4666 112.629 15.4048C112.743 15.3413 112.876 15.3096 113.029 15.3096C113.067 15.3096 113.103 15.3128 113.139 15.3193C113.177 15.3242 113.204 15.3307 113.222 15.3389ZM114.509 17.7363L115.332 15.3584H115.646L114.528 18.4248C114.506 18.485 114.476 18.5518 114.44 18.625C114.406 18.6982 114.361 18.7682 114.304 18.835C114.248 18.9033 114.178 18.9587 114.094 19.001C114.011 19.0449 113.909 19.0669 113.789 19.0669C113.758 19.0669 113.718 19.0628 113.669 19.0547C113.622 19.0482 113.588 19.0417 113.566 19.0352L113.564 18.7886C113.582 18.7935 113.608 18.7975 113.642 18.8008C113.676 18.804 113.7 18.8057 113.713 18.8057C113.819 18.8057 113.907 18.7878 113.979 18.752C114.052 18.7161 114.113 18.6624 114.162 18.5908C114.211 18.5208 114.254 18.4329 114.292 18.3271L114.509 17.7363ZM113.74 15.3584L114.582 17.6265L114.66 17.9316L114.448 18.0513L113.422 15.3584H113.74Z" fill="black"/>
<path d="M18.6943 51.4307V55H18.4038V51.7993L17.437 52.1582V51.8823L18.6455 51.4307H18.6943Z" fill="black"/>
<path d="M33.5444 41.4453H33.8472L35.1606 44.5752L36.4766 41.4453H36.7769L35.2754 45H35.0459L33.5444 41.4453ZM33.4517 41.4453H33.7178L33.7495 43.4473V45H33.4517V41.4453ZM36.6084 41.4453H36.8745V45H36.5742V43.4473L36.6084 41.4453ZM37.5483 43.7207V43.6401C37.5483 43.4481 37.576 43.2707 37.6313 43.1079C37.6867 42.9451 37.7656 42.8044 37.8682 42.6855C37.9723 42.5667 38.0968 42.4748 38.2417 42.4097C38.3866 42.3429 38.5477 42.3096 38.7251 42.3096C38.9041 42.3096 39.0661 42.3429 39.2109 42.4097C39.3558 42.4748 39.4803 42.5667 39.5845 42.6855C39.6886 42.8044 39.7684 42.9451 39.8237 43.1079C39.8791 43.2707 39.9067 43.4481 39.9067 43.6401V43.7207C39.9067 43.9128 39.8791 44.0902 39.8237 44.2529C39.7684 44.4141 39.6886 44.554 39.5845 44.6729C39.4819 44.7917 39.3582 44.8844 39.2134 44.9512C39.0685 45.0163 38.9074 45.0488 38.73 45.0488C38.5509 45.0488 38.389 45.0163 38.2441 44.9512C38.0993 44.8844 37.9748 44.7917 37.8706 44.6729C37.7664 44.554 37.6867 44.4141 37.6313 44.2529C37.576 44.0902 37.5483 43.9128 37.5483 43.7207ZM37.8389 43.6401V43.7207C37.8389 43.8656 37.8584 44.0031 37.8975 44.1333C37.9365 44.2619 37.9935 44.3766 38.0684 44.4775C38.1432 44.5768 38.236 44.6549 38.3467 44.7119C38.4574 44.7689 38.5851 44.7974 38.73 44.7974C38.8732 44.7974 38.9993 44.7689 39.1084 44.7119C39.2191 44.6549 39.3118 44.5768 39.3867 44.4775C39.4616 44.3766 39.5177 44.2619 39.5552 44.1333C39.5942 44.0031 39.6138 43.8656 39.6138 43.7207V43.6401C39.6138 43.4969 39.5942 43.361 39.5552 43.2324C39.5177 43.1038 39.4608 42.9891 39.3843 42.8882C39.3094 42.7873 39.2166 42.7075 39.106 42.6489C38.9953 42.5903 38.8683 42.561 38.7251 42.561C38.5819 42.561 38.4549 42.5903 38.3442 42.6489C38.2352 42.7075 38.1424 42.7873 38.0659 42.8882C37.991 42.9891 37.9341 43.1038 37.895 43.2324C37.8576 43.361 37.8389 43.4969 37.8389 43.6401ZM40.8027 42.9224V45H40.5122V42.3584H40.7905L40.8027 42.9224ZM40.7368 43.5156L40.6074 43.4424C40.6172 43.2861 40.6489 43.1396 40.7026 43.0029C40.7563 42.8662 40.8288 42.7458 40.9199 42.6416C41.0127 42.5374 41.1209 42.4561 41.2446 42.3975C41.37 42.3389 41.5083 42.3096 41.6597 42.3096C41.7915 42.3096 41.9095 42.3275 42.0137 42.3633C42.1178 42.3991 42.2065 42.4561 42.2798 42.5342C42.353 42.6123 42.4084 42.7124 42.4458 42.8345C42.4849 42.9565 42.5044 43.1055 42.5044 43.2812V45H42.2114V43.2788C42.2114 43.0965 42.1862 42.9541 42.1357 42.8516C42.0853 42.7474 42.0137 42.6733 41.9209 42.6294C41.8281 42.5854 41.7183 42.5635 41.5913 42.5635C41.4513 42.5635 41.3285 42.5944 41.2227 42.6562C41.1185 42.7165 41.0306 42.7954 40.959 42.8931C40.889 42.9891 40.8353 43.0924 40.7979 43.2031C40.7604 43.3122 40.7401 43.4163 40.7368 43.5156Z" fill="black"/>
<path d="M37.561 54.7485V55H35.3369V54.7729L36.5015 53.4521C36.6463 53.2878 36.7619 53.1437 36.8481 53.02C36.9344 52.8947 36.9963 52.7808 37.0337 52.6782C37.0728 52.5741 37.0923 52.4731 37.0923 52.3755C37.0923 52.2323 37.0638 52.1061 37.0068 51.9971C36.9515 51.888 36.8685 51.8026 36.7578 51.7407C36.6471 51.6789 36.5104 51.6479 36.3477 51.6479C36.1849 51.6479 36.0433 51.6829 35.9229 51.7529C35.8024 51.8229 35.7096 51.9206 35.6445 52.0459C35.5811 52.1696 35.5493 52.3104 35.5493 52.4683H35.2588C35.2588 52.2729 35.3019 52.0939 35.3882 51.9312C35.4761 51.7684 35.6014 51.639 35.7642 51.543C35.9269 51.4453 36.1214 51.3965 36.3477 51.3965C36.5625 51.3965 36.7472 51.4347 36.9019 51.5112C37.0565 51.5861 37.1753 51.6943 37.2583 51.8359C37.3429 51.9775 37.3853 52.1484 37.3853 52.3486C37.3853 52.4561 37.3657 52.5643 37.3267 52.6733C37.2892 52.7824 37.2371 52.8914 37.1704 53.0005C37.1053 53.1079 37.0304 53.2145 36.9458 53.3203C36.8628 53.4261 36.7757 53.5303 36.6846 53.6328L35.6934 54.7485H37.561Z" fill="black"/>
<path d="M52.6431 41.4453V45H52.3452V41.4453H52.6431ZM53.8613 41.4453V41.7041H51.1294V41.4453H53.8613ZM55.8291 44.3896V42.3584H56.1221V45H55.8413L55.8291 44.3896ZM55.8828 43.9014L56.0342 43.8965C56.0342 44.0625 56.0146 44.2155 55.9756 44.3555C55.9365 44.4954 55.8755 44.6175 55.7925 44.7217C55.7095 44.8258 55.6021 44.9064 55.4702 44.9634C55.3384 45.0203 55.1797 45.0488 54.9941 45.0488C54.8656 45.0488 54.7476 45.0309 54.6401 44.9951C54.5343 44.9577 54.4432 44.8991 54.3667 44.8193C54.2902 44.7396 54.2308 44.6362 54.1885 44.5093C54.1478 44.3823 54.1274 44.2285 54.1274 44.0479V42.3584H54.418V44.0527C54.418 44.1943 54.4334 44.3123 54.4644 44.4067C54.4969 44.5011 54.5409 44.5768 54.5962 44.6338C54.6532 44.6908 54.7183 44.7314 54.7915 44.7559C54.8647 44.7803 54.9437 44.7925 55.0283 44.7925C55.2432 44.7925 55.4124 44.751 55.5361 44.668C55.6615 44.585 55.7502 44.4759 55.8022 44.3408C55.856 44.2041 55.8828 44.0576 55.8828 43.9014ZM57.9067 45.0488C57.7342 45.0488 57.5755 45.0171 57.4307 44.9536C57.2874 44.8901 57.1621 44.8006 57.0547 44.6851C56.9489 44.5695 56.8667 44.4328 56.8081 44.2749C56.7511 44.1154 56.7227 43.9412 56.7227 43.7524V43.6475C56.7227 43.444 56.7528 43.2601 56.813 43.0957C56.8732 42.9313 56.9562 42.7905 57.062 42.6733C57.1678 42.5562 57.2882 42.4666 57.4233 42.4048C57.5601 42.3413 57.7033 42.3096 57.853 42.3096C58.0207 42.3096 58.1696 42.3397 58.2998 42.3999C58.43 42.4585 58.5391 42.5423 58.627 42.6514C58.7165 42.7588 58.784 42.8866 58.8296 43.0347C58.8752 43.1812 58.8979 43.3431 58.8979 43.5205V43.6987H56.8984V43.4497H58.6074V43.4155C58.6042 43.2674 58.5741 43.1291 58.5171 43.0005C58.4618 42.8703 58.3787 42.7645 58.2681 42.6831C58.1574 42.6017 58.019 42.561 57.853 42.561C57.7293 42.561 57.6154 42.5871 57.5112 42.6392C57.4087 42.6912 57.32 42.7661 57.2451 42.8638C57.1719 42.9598 57.1149 43.0745 57.0742 43.208C57.0352 43.3398 57.0156 43.4863 57.0156 43.6475V43.7524C57.0156 43.8989 57.0368 44.0356 57.0791 44.1626C57.123 44.2879 57.1849 44.3986 57.2646 44.4946C57.346 44.5907 57.4421 44.6655 57.5527 44.7192C57.6634 44.7729 57.7855 44.7998 57.9189 44.7998C58.0752 44.7998 58.2135 44.7713 58.334 44.7144C58.4544 44.6558 58.5627 44.5638 58.6587 44.4385L58.8418 44.5801C58.7848 44.6647 58.7132 44.7428 58.627 44.8145C58.5423 44.8861 58.4406 44.943 58.3218 44.9854C58.203 45.0277 58.0646 45.0488 57.9067 45.0488Z" fill="black"/>
<path d="M53.9546 53.0005H54.2769C54.4347 53.0005 54.5649 52.9744 54.6675 52.9224C54.7716 52.8687 54.849 52.7962 54.8994 52.7051C54.9515 52.6123 54.9775 52.5081 54.9775 52.3926C54.9775 52.2559 54.9548 52.1411 54.9092 52.0483C54.8636 51.9556 54.7952 51.8856 54.7041 51.8384C54.613 51.7912 54.4974 51.7676 54.3574 51.7676C54.2305 51.7676 54.1182 51.7928 54.0205 51.8433C53.9245 51.8921 53.8488 51.9621 53.7935 52.0532C53.7397 52.1444 53.7129 52.2518 53.7129 52.3755H53.2612C53.2612 52.1948 53.3068 52.0304 53.3979 51.8823C53.4891 51.7342 53.6169 51.6162 53.7812 51.5283C53.9473 51.4404 54.1393 51.3965 54.3574 51.3965C54.5723 51.3965 54.7603 51.4347 54.9214 51.5112C55.0825 51.5861 55.2078 51.6984 55.2974 51.8481C55.3869 51.9963 55.4316 52.181 55.4316 52.4023C55.4316 52.4919 55.4105 52.5879 55.3682 52.6904C55.3275 52.7913 55.2632 52.8857 55.1753 52.9736C55.089 53.0615 54.9767 53.134 54.8384 53.1909C54.7 53.2463 54.534 53.2739 54.3403 53.2739H53.9546V53.0005ZM53.9546 53.3716V53.1006H54.3403C54.5666 53.1006 54.7537 53.1274 54.9019 53.1812C55.05 53.2349 55.1663 53.3065 55.251 53.396C55.3372 53.4855 55.3975 53.584 55.4316 53.6914C55.4674 53.7972 55.4854 53.903 55.4854 54.0088C55.4854 54.1748 55.4569 54.3221 55.3999 54.4507C55.3446 54.5793 55.2656 54.6883 55.1631 54.7778C55.0622 54.8674 54.9434 54.9349 54.8066 54.9805C54.6699 55.026 54.521 55.0488 54.3599 55.0488C54.2052 55.0488 54.0596 55.0269 53.9229 54.9829C53.7878 54.939 53.6681 54.8755 53.564 54.7925C53.4598 54.7078 53.3784 54.6045 53.3198 54.4824C53.2612 54.3587 53.2319 54.2179 53.2319 54.0601H53.6836C53.6836 54.1838 53.7104 54.292 53.7642 54.3848C53.8195 54.4775 53.8976 54.55 53.9985 54.6021C54.1011 54.6525 54.2215 54.6777 54.3599 54.6777C54.4982 54.6777 54.617 54.6541 54.7163 54.6069C54.8172 54.5581 54.8945 54.4849 54.9482 54.3872C55.0036 54.2896 55.0312 54.1667 55.0312 54.0186C55.0312 53.8704 55.0003 53.7492 54.9385 53.6548C54.8766 53.5588 54.7887 53.488 54.6748 53.4424C54.5625 53.3952 54.4299 53.3716 54.2769 53.3716H53.9546Z" fill="black"/>
<path d="M70.3525 44.0601L71.124 41.4453H71.3657L71.1704 42.2217L70.3477 45H70.1157L70.3525 44.0601ZM69.4565 41.4453L70.106 44.0356L70.3013 45H70.0596L69.1489 41.4453H69.4565ZM72.4058 44.0356L73.0454 41.4453H73.353L72.4448 45H72.2031L72.4058 44.0356ZM71.3926 41.4453L72.1543 44.0601L72.3887 45H72.1567L71.3511 42.2217L71.1533 41.4453H71.3926ZM74.8081 45.0488C74.6356 45.0488 74.4769 45.0171 74.332 44.9536C74.1888 44.8901 74.0635 44.8006 73.9561 44.6851C73.8503 44.5695 73.7681 44.4328 73.7095 44.2749C73.6525 44.1154 73.624 43.9412 73.624 43.7524V43.6475C73.624 43.444 73.6541 43.2601 73.7144 43.0957C73.7746 42.9313 73.8576 42.7905 73.9634 42.6733C74.0692 42.5562 74.1896 42.4666 74.3247 42.4048C74.4614 42.3413 74.6047 42.3096 74.7544 42.3096C74.922 42.3096 75.071 42.3397 75.2012 42.3999C75.3314 42.4585 75.4404 42.5423 75.5283 42.6514C75.6178 42.7588 75.6854 42.8866 75.731 43.0347C75.7765 43.1812 75.7993 43.3431 75.7993 43.5205V43.6987H73.7998V43.4497H75.5088V43.4155C75.5055 43.2674 75.4754 43.1291 75.4185 43.0005C75.3631 42.8703 75.2801 42.7645 75.1694 42.6831C75.0588 42.6017 74.9204 42.561 74.7544 42.561C74.6307 42.561 74.5168 42.5871 74.4126 42.6392C74.3101 42.6912 74.2214 42.7661 74.1465 42.8638C74.0732 42.9598 74.0163 43.0745 73.9756 43.208C73.9365 43.3398 73.917 43.4863 73.917 43.6475V43.7524C73.917 43.8989 73.9382 44.0356 73.9805 44.1626C74.0244 44.2879 74.0863 44.3986 74.166 44.4946C74.2474 44.5907 74.3434 44.6655 74.4541 44.7192C74.5648 44.7729 74.6868 44.7998 74.8203 44.7998C74.9766 44.7998 75.1149 44.7713 75.2354 44.7144C75.3558 44.6558 75.464 44.5638 75.5601 44.4385L75.7432 44.5801C75.6862 44.6647 75.6146 44.7428 75.5283 44.8145C75.4437 44.8861 75.342 44.943 75.2231 44.9854C75.1043 45.0277 74.966 45.0488 74.8081 45.0488ZM78.0918 44.4873V41.25H78.3848V45H78.1113L78.0918 44.4873ZM76.2583 43.7061V43.6548C76.2583 43.4497 76.2819 43.265 76.3291 43.1006C76.3763 42.9346 76.4438 42.793 76.5317 42.6758C76.6213 42.557 76.7287 42.4666 76.854 42.4048C76.9793 42.3413 77.1209 42.3096 77.2788 42.3096C77.4334 42.3096 77.5701 42.3348 77.689 42.3853C77.8078 42.4357 77.9095 42.5081 77.9941 42.6025C78.0804 42.6969 78.1496 42.8092 78.2017 42.9395C78.2554 43.0697 78.2944 43.2145 78.3188 43.374V44.0259C78.2993 44.1756 78.2635 44.3132 78.2114 44.4385C78.1593 44.5622 78.0902 44.6704 78.0039 44.7632C77.9176 44.8543 77.8135 44.9251 77.6914 44.9756C77.571 45.0244 77.4318 45.0488 77.2739 45.0488C77.1177 45.0488 76.9769 45.0163 76.8516 44.9512C76.7262 44.8861 76.6196 44.7941 76.5317 44.6753C76.4438 44.5549 76.3763 44.4124 76.3291 44.248C76.2819 44.0837 76.2583 43.903 76.2583 43.7061ZM76.5513 43.6548V43.7061C76.5513 43.8607 76.5667 44.0039 76.5977 44.1357C76.6286 44.2676 76.6758 44.3823 76.7393 44.48C76.8027 44.5776 76.8833 44.6541 76.981 44.7095C77.0786 44.7648 77.1942 44.7925 77.3276 44.7925C77.4953 44.7925 77.6361 44.7607 77.75 44.6973C77.8639 44.6322 77.9551 44.5467 78.0234 44.4409C78.0918 44.3335 78.1414 44.2163 78.1724 44.0894V43.3301C78.1528 43.2438 78.1243 43.1559 78.0869 43.0664C78.0495 42.9769 77.9982 42.8947 77.9331 42.8198C77.8696 42.7433 77.7882 42.6823 77.689 42.6367C77.5913 42.5895 77.4725 42.5659 77.3325 42.5659C77.1974 42.5659 77.0811 42.5936 76.9834 42.6489C76.8857 42.7043 76.8044 42.7816 76.7393 42.8809C76.6758 42.9785 76.6286 43.0933 76.5977 43.2251C76.5667 43.3569 76.5513 43.5002 76.5513 43.6548Z" fill="black"/>
<path d="M17.4634 44.126C17.4634 44.0283 17.4471 43.9412 17.4146 43.8647C17.382 43.7882 17.3283 43.7199 17.2534 43.6597C17.1802 43.5978 17.0809 43.5409 16.9556 43.4888C16.8319 43.4351 16.6772 43.3822 16.4917 43.3301C16.3143 43.2796 16.154 43.2243 16.0107 43.1641C15.8675 43.1038 15.7446 43.0347 15.6421 42.9565C15.5412 42.8784 15.4639 42.7873 15.4102 42.6831C15.3564 42.5773 15.3296 42.4544 15.3296 42.3145C15.3296 42.1777 15.3589 42.0532 15.4175 41.9409C15.4761 41.8286 15.5583 41.7318 15.6641 41.6504C15.7715 41.569 15.8976 41.5063 16.0425 41.4624C16.189 41.4185 16.3493 41.3965 16.5234 41.3965C16.7725 41.3965 16.9873 41.4437 17.168 41.5381C17.3503 41.6325 17.491 41.7603 17.5903 41.9214C17.6912 42.0809 17.7417 42.2599 17.7417 42.4585H17.4414C17.4414 42.3039 17.4048 42.1663 17.3315 42.0459C17.2599 41.9238 17.1558 41.8286 17.019 41.7603C16.884 41.6903 16.7188 41.6553 16.5234 41.6553C16.3281 41.6553 16.1637 41.6854 16.0303 41.7456C15.8984 41.8042 15.7983 41.8831 15.73 41.9824C15.6632 42.0801 15.6299 42.1891 15.6299 42.3096C15.6299 42.3942 15.6462 42.4723 15.6787 42.5439C15.7113 42.6139 15.7642 42.6799 15.8374 42.7417C15.9123 42.8019 16.0107 42.8589 16.1328 42.9126C16.2549 42.9647 16.4054 43.0143 16.5845 43.0615C16.7733 43.1136 16.9409 43.1714 17.0874 43.2349C17.2339 43.2983 17.3576 43.3716 17.4585 43.4546C17.5594 43.536 17.6359 43.6312 17.688 43.7402C17.7401 43.8493 17.7661 43.9762 17.7661 44.1211C17.7661 44.266 17.7352 44.3962 17.6733 44.5117C17.6131 44.6257 17.5277 44.7225 17.417 44.8022C17.3079 44.882 17.1785 44.943 17.0288 44.9854C16.8807 45.0277 16.7188 45.0488 16.543 45.0488C16.3851 45.0488 16.228 45.0285 16.0718 44.9878C15.9155 44.9471 15.7723 44.8844 15.6421 44.7998C15.5135 44.7135 15.4102 44.6029 15.332 44.4678C15.2555 44.3327 15.2173 44.1715 15.2173 43.9844H15.5151C15.5151 44.1341 15.5452 44.2603 15.6055 44.3628C15.6657 44.4653 15.7454 44.5483 15.8447 44.6118C15.9456 44.6753 16.0563 44.7217 16.1768 44.751C16.2988 44.7786 16.4209 44.7925 16.543 44.7925C16.7301 44.7925 16.8921 44.7648 17.0288 44.7095C17.1672 44.6541 17.2738 44.5768 17.3486 44.4775C17.4251 44.3766 17.4634 44.2594 17.4634 44.126ZM20.0391 44.3896V42.3584H20.332V45H20.0513L20.0391 44.3896ZM20.0928 43.9014L20.2441 43.8965C20.2441 44.0625 20.2246 44.2155 20.1855 44.3555C20.1465 44.4954 20.0854 44.6175 20.0024 44.7217C19.9194 44.8258 19.812 44.9064 19.6802 44.9634C19.5483 45.0203 19.3896 45.0488 19.2041 45.0488C19.0755 45.0488 18.9575 45.0309 18.8501 44.9951C18.7443 44.9577 18.6532 44.8991 18.5767 44.8193C18.5002 44.7396 18.4408 44.6362 18.3984 44.5093C18.3577 44.3823 18.3374 44.2285 18.3374 44.0479V42.3584H18.6279V44.0527C18.6279 44.1943 18.6434 44.3123 18.6743 44.4067C18.7069 44.5011 18.7508 44.5768 18.8062 44.6338C18.8631 44.6908 18.9282 44.7314 19.0015 44.7559C19.0747 44.7803 19.1536 44.7925 19.2383 44.7925C19.4531 44.7925 19.6224 44.751 19.7461 44.668C19.8714 44.585 19.9601 44.4759 20.0122 44.3408C20.0659 44.2041 20.0928 44.0576 20.0928 43.9014ZM21.3867 42.9224V45H21.0962V42.3584H21.3745L21.3867 42.9224ZM21.3208 43.5156L21.1914 43.4424C21.2012 43.2861 21.2329 43.1396 21.2866 43.0029C21.3403 42.8662 21.4128 42.7458 21.5039 42.6416C21.5967 42.5374 21.7049 42.4561 21.8286 42.3975C21.9539 42.3389 22.0923 42.3096 22.2437 42.3096C22.3755 42.3096 22.4935 42.3275 22.5977 42.3633C22.7018 42.3991 22.7905 42.4561 22.8638 42.5342C22.937 42.6123 22.9924 42.7124 23.0298 42.8345C23.0688 42.9565 23.0884 43.1055 23.0884 43.2812V45H22.7954V43.2788C22.7954 43.0965 22.7702 42.9541 22.7197 42.8516C22.6693 42.7474 22.5977 42.6733 22.5049 42.6294C22.4121 42.5854 22.3022 42.5635 22.1753 42.5635C22.0353 42.5635 21.9124 42.5944 21.8066 42.6562C21.7025 42.7165 21.6146 42.7954 21.543 42.8931C21.473 42.9891 21.4193 43.0924 21.3818 43.2031C21.3444 43.3122 21.3241 43.4163 21.3208 43.5156Z" fill="black"/>
<path d="M73.6831 53.8525V54.1016H71.166V53.9331L72.8091 51.4453H73.0532L72.7065 52.0483L71.5225 53.8525H73.6831ZM73.1289 51.4453V55H72.8384V51.4453H73.1289Z" fill="black"/>
<path d="M88.6431 41.4453V45H88.3452V41.4453H88.6431ZM89.8613 41.4453V41.7041H87.1294V41.4453H89.8613ZM90.6621 41.25V45H90.3716V41.25H90.6621ZM90.5962 43.5156L90.4668 43.4424C90.4766 43.2861 90.5083 43.1396 90.562 43.0029C90.6157 42.8662 90.6882 42.7458 90.7793 42.6416C90.8721 42.5374 90.9803 42.4561 91.104 42.3975C91.2293 42.3389 91.3677 42.3096 91.519 42.3096C91.6509 42.3096 91.7689 42.3275 91.873 42.3633C91.9772 42.3991 92.0659 42.4561 92.1392 42.5342C92.2124 42.6123 92.2677 42.7124 92.3052 42.8345C92.3442 42.9565 92.3638 43.1055 92.3638 43.2812V45H92.0708V43.2788C92.0708 43.0965 92.0456 42.9541 91.9951 42.8516C91.9447 42.7474 91.873 42.6733 91.7803 42.6294C91.6875 42.5854 91.5776 42.5635 91.4507 42.5635C91.3107 42.5635 91.1878 42.5944 91.082 42.6562C90.9779 42.7165 90.89 42.7954 90.8184 42.8931C90.7484 42.9891 90.6947 43.0924 90.6572 43.2031C90.6198 43.3122 90.5994 43.4163 90.5962 43.5156ZM94.8076 44.3896V42.3584H95.1006V45H94.8198L94.8076 44.3896ZM94.8613 43.9014L95.0127 43.8965C95.0127 44.0625 94.9932 44.2155 94.9541 44.3555C94.915 44.4954 94.854 44.6175 94.771 44.7217C94.688 44.8258 94.5806 44.9064 94.4487 44.9634C94.3169 45.0203 94.1582 45.0488 93.9727 45.0488C93.8441 45.0488 93.7261 45.0309 93.6187 44.9951C93.5129 44.9577 93.4217 44.8991 93.3452 44.8193C93.2687 44.7396 93.2093 44.6362 93.167 44.5093C93.1263 44.3823 93.106 44.2285 93.106 44.0479V42.3584H93.3965V44.0527C93.3965 44.1943 93.4119 44.3123 93.4429 44.4067C93.4754 44.5011 93.5194 44.5768 93.5747 44.6338C93.6317 44.6908 93.6968 44.7314 93.77 44.7559C93.8433 44.7803 93.9222 44.7925 94.0068 44.7925C94.2217 44.7925 94.391 44.751 94.5146 44.668C94.64 44.585 94.7287 44.4759 94.7808 44.3408C94.8345 44.2041 94.8613 44.0576 94.8613 43.9014Z" fill="black"/>
<path d="M89.7642 53.2422L89.5347 53.1763L89.708 51.4453H91.4854V51.7188H89.957L89.8325 52.915C89.8944 52.8711 89.9839 52.828 90.1011 52.7856C90.2199 52.7417 90.3534 52.7197 90.5015 52.7197C90.6593 52.7197 90.8026 52.7466 90.9312 52.8003C91.0614 52.8524 91.1729 52.9289 91.2656 53.0298C91.3584 53.1291 91.43 53.2495 91.4805 53.3911C91.5309 53.5311 91.5562 53.6898 91.5562 53.8672C91.5562 54.0381 91.535 54.1951 91.4927 54.3384C91.4504 54.4816 91.3861 54.6069 91.2998 54.7144C91.2135 54.8201 91.1037 54.9023 90.9702 54.9609C90.8368 55.0195 90.6781 55.0488 90.4941 55.0488C90.3525 55.0488 90.2191 55.0293 90.0938 54.9902C89.9701 54.9495 89.8594 54.8885 89.7617 54.8071C89.6641 54.7257 89.5843 54.6232 89.5225 54.4995C89.4622 54.3758 89.4248 54.231 89.4102 54.0649H89.6909C89.7104 54.2244 89.7536 54.3587 89.8203 54.4678C89.887 54.5768 89.9766 54.659 90.0889 54.7144C90.2028 54.7697 90.3379 54.7974 90.4941 54.7974C90.6211 54.7974 90.7318 54.777 90.8262 54.7363C90.9222 54.6956 91.002 54.6362 91.0654 54.5581C91.1305 54.4784 91.1794 54.3815 91.2119 54.2676C91.2461 54.152 91.2632 54.0202 91.2632 53.8721C91.2632 53.7451 91.2453 53.6287 91.2095 53.5229C91.1737 53.4155 91.1208 53.3219 91.0508 53.2422C90.9824 53.1608 90.8978 53.0981 90.7969 53.0542C90.696 53.0103 90.5804 52.9883 90.4502 52.9883C90.2809 52.9883 90.1458 53.0111 90.0449 53.0566C89.9456 53.1022 89.8521 53.1641 89.7642 53.2422Z" fill="black"/>
<path d="M105.752 41.4453V45H105.452V41.4453H105.752ZM107.407 43.0811V43.3398H105.652V43.0811H107.407ZM107.654 41.4453V41.7041H105.652V41.4453H107.654ZM108.423 42.7954V45H108.132V42.3584H108.416L108.423 42.7954ZM109.358 42.3389L109.351 42.6074C109.318 42.6025 109.286 42.5985 109.255 42.5952C109.224 42.592 109.191 42.5903 109.155 42.5903C109.028 42.5903 108.917 42.6139 108.821 42.6611C108.726 42.7067 108.647 42.771 108.582 42.854C108.516 42.9354 108.467 43.0314 108.433 43.1421C108.398 43.2511 108.379 43.3683 108.374 43.4937L108.267 43.5352C108.267 43.3626 108.285 43.2023 108.32 43.0542C108.356 42.9061 108.411 42.7767 108.484 42.666C108.559 42.5537 108.652 42.4666 108.765 42.4048C108.879 42.3413 109.012 42.3096 109.165 42.3096C109.202 42.3096 109.239 42.3128 109.275 42.3193C109.312 42.3242 109.34 42.3307 109.358 42.3389ZM110.142 42.3584V45H109.851V42.3584H110.142ZM109.8 41.5942C109.8 41.5389 109.817 41.4925 109.851 41.4551C109.887 41.416 109.936 41.3965 109.998 41.3965C110.059 41.3965 110.108 41.416 110.144 41.4551C110.181 41.4925 110.2 41.5389 110.2 41.5942C110.2 41.6479 110.181 41.6943 110.144 41.7334C110.108 41.7708 110.059 41.7896 109.998 41.7896C109.936 41.7896 109.887 41.7708 109.851 41.7334C109.817 41.6943 109.8 41.6479 109.8 41.5942Z" fill="black"/>
<path d="M109.017 51.4185H109.058V51.6748H109.017C108.792 51.6748 108.592 51.7114 108.416 51.7847C108.242 51.8579 108.095 51.9637 107.974 52.1021C107.855 52.2388 107.765 52.4048 107.703 52.6001C107.641 52.7954 107.61 53.0143 107.61 53.2568V53.7476C107.61 53.9119 107.632 54.0592 107.676 54.1895C107.72 54.318 107.781 54.4279 107.859 54.519C107.938 54.6102 108.029 54.6794 108.133 54.7266C108.237 54.7738 108.349 54.7974 108.47 54.7974C108.589 54.7974 108.695 54.7729 108.79 54.7241C108.884 54.6753 108.964 54.6069 109.029 54.519C109.096 54.4312 109.146 54.3302 109.18 54.2163C109.216 54.1007 109.234 53.9771 109.234 53.8452C109.234 53.7199 109.218 53.6019 109.185 53.4912C109.154 53.3789 109.106 53.2796 109.041 53.1934C108.976 53.1071 108.895 53.0396 108.797 52.9907C108.699 52.9419 108.584 52.9175 108.453 52.9175C108.303 52.9175 108.163 52.9517 108.033 53.02C107.903 53.0884 107.796 53.1795 107.713 53.2935C107.632 53.4074 107.588 53.5319 107.583 53.667L107.415 53.6646C107.426 53.5116 107.461 53.374 107.52 53.252C107.579 53.1283 107.656 53.0233 107.752 52.937C107.85 52.8491 107.961 52.7824 108.086 52.7368C108.213 52.6896 108.35 52.666 108.497 52.666C108.667 52.666 108.816 52.6969 108.943 52.7588C109.072 52.8206 109.179 52.9061 109.263 53.0151C109.349 53.1226 109.414 53.2471 109.456 53.3887C109.5 53.5286 109.522 53.6768 109.522 53.833C109.522 54.0039 109.498 54.1634 109.449 54.3115C109.402 54.458 109.332 54.5866 109.239 54.6973C109.148 54.8079 109.037 54.8942 108.907 54.9561C108.778 55.0179 108.632 55.0488 108.47 55.0488C108.291 55.0488 108.13 55.0146 107.989 54.9463C107.847 54.8779 107.726 54.7835 107.625 54.6631C107.526 54.5426 107.449 54.4043 107.396 54.248C107.343 54.0902 107.317 53.9217 107.317 53.7427V53.4302C107.317 53.1274 107.352 52.8532 107.422 52.6074C107.492 52.36 107.597 52.1476 107.737 51.9702C107.879 51.7928 108.056 51.6569 108.267 51.5625C108.48 51.4665 108.73 51.4185 109.017 51.4185Z" fill="black"/>
<path d="M125.463 44.126C125.463 44.0283 125.447 43.9412 125.415 43.8647C125.382 43.7882 125.328 43.7199 125.253 43.6597C125.18 43.5978 125.081 43.5409 124.956 43.4888C124.832 43.4351 124.677 43.3822 124.492 43.3301C124.314 43.2796 124.154 43.2243 124.011 43.1641C123.868 43.1038 123.745 43.0347 123.642 42.9565C123.541 42.8784 123.464 42.7873 123.41 42.6831C123.356 42.5773 123.33 42.4544 123.33 42.3145C123.33 42.1777 123.359 42.0532 123.417 41.9409C123.476 41.8286 123.558 41.7318 123.664 41.6504C123.771 41.569 123.898 41.5063 124.042 41.4624C124.189 41.4185 124.349 41.3965 124.523 41.3965C124.772 41.3965 124.987 41.4437 125.168 41.5381C125.35 41.6325 125.491 41.7603 125.59 41.9214C125.691 42.0809 125.742 42.2599 125.742 42.4585H125.441C125.441 42.3039 125.405 42.1663 125.332 42.0459C125.26 41.9238 125.156 41.8286 125.019 41.7603C124.884 41.6903 124.719 41.6553 124.523 41.6553C124.328 41.6553 124.164 41.6854 124.03 41.7456C123.898 41.8042 123.798 41.8831 123.73 41.9824C123.663 42.0801 123.63 42.1891 123.63 42.3096C123.63 42.3942 123.646 42.4723 123.679 42.5439C123.711 42.6139 123.764 42.6799 123.837 42.7417C123.912 42.8019 124.011 42.8589 124.133 42.9126C124.255 42.9647 124.405 43.0143 124.584 43.0615C124.773 43.1136 124.941 43.1714 125.087 43.2349C125.234 43.2983 125.358 43.3716 125.458 43.4546C125.559 43.536 125.636 43.6312 125.688 43.7402C125.74 43.8493 125.766 43.9762 125.766 44.1211C125.766 44.266 125.735 44.3962 125.673 44.5117C125.613 44.6257 125.528 44.7225 125.417 44.8022C125.308 44.882 125.179 44.943 125.029 44.9854C124.881 45.0277 124.719 45.0488 124.543 45.0488C124.385 45.0488 124.228 45.0285 124.072 44.9878C123.916 44.9471 123.772 44.8844 123.642 44.7998C123.514 44.7135 123.41 44.6029 123.332 44.4678C123.256 44.3327 123.217 44.1715 123.217 43.9844H123.515C123.515 44.1341 123.545 44.2603 123.605 44.3628C123.666 44.4653 123.745 44.5483 123.845 44.6118C123.946 44.6753 124.056 44.7217 124.177 44.751C124.299 44.7786 124.421 44.7925 124.543 44.7925C124.73 44.7925 124.892 44.7648 125.029 44.7095C125.167 44.6541 125.274 44.5768 125.349 44.4775C125.425 44.3766 125.463 44.2594 125.463 44.126ZM127.954 44.5264V43.1641C127.954 43.0387 127.928 42.9305 127.875 42.8394C127.823 42.7482 127.747 42.6782 127.646 42.6294C127.545 42.5806 127.421 42.5562 127.272 42.5562C127.136 42.5562 127.014 42.5806 126.906 42.6294C126.8 42.6766 126.717 42.7409 126.655 42.8223C126.595 42.902 126.564 42.9907 126.564 43.0884L126.271 43.0859C126.271 42.9867 126.296 42.8906 126.345 42.7979C126.394 42.7051 126.463 42.6221 126.552 42.5488C126.642 42.4756 126.748 42.4178 126.872 42.3755C126.997 42.3315 127.135 42.3096 127.285 42.3096C127.473 42.3096 127.639 42.3413 127.783 42.4048C127.928 42.4683 128.041 42.5635 128.122 42.6904C128.203 42.8174 128.244 42.9769 128.244 43.1689V44.4458C128.244 44.5369 128.251 44.6313 128.264 44.729C128.278 44.8267 128.299 44.9072 128.325 44.9707V45H128.015C127.995 44.9414 127.98 44.8682 127.968 44.7803C127.958 44.6908 127.954 44.6061 127.954 44.5264ZM128.022 43.4619L128.027 43.6865H127.453C127.303 43.6865 127.169 43.7004 127.05 43.728C126.933 43.7541 126.834 43.7931 126.752 43.8452C126.671 43.8957 126.608 43.9567 126.564 44.0283C126.522 44.0999 126.501 44.1813 126.501 44.2725C126.501 44.3669 126.525 44.4531 126.572 44.5312C126.621 44.6094 126.689 44.672 126.777 44.7192C126.866 44.7648 126.972 44.7876 127.094 44.7876C127.257 44.7876 127.4 44.7575 127.524 44.6973C127.649 44.637 127.753 44.5581 127.834 44.4604C127.915 44.3628 127.97 44.2562 127.998 44.1406L128.125 44.3091C128.103 44.3905 128.064 44.4743 128.007 44.5605C127.952 44.6452 127.88 44.7249 127.79 44.7998C127.701 44.873 127.595 44.9333 127.473 44.9805C127.352 45.026 127.215 45.0488 127.062 45.0488C126.89 45.0488 126.739 45.0163 126.611 44.9512C126.484 44.8861 126.385 44.7974 126.313 44.6851C126.243 44.5711 126.208 44.4425 126.208 44.2993C126.208 44.1691 126.236 44.0527 126.291 43.9502C126.346 43.846 126.426 43.7581 126.53 43.6865C126.636 43.6133 126.763 43.5579 126.911 43.5205C127.061 43.4814 127.229 43.4619 127.414 43.4619H128.022ZM130.026 42.3584V42.5977H128.703V42.3584H130.026ZM129.189 41.6797H129.479V44.3579C129.479 44.48 129.496 44.5719 129.528 44.6338C129.561 44.6956 129.603 44.7371 129.655 44.7583C129.707 44.7795 129.764 44.79 129.824 44.79C129.868 44.79 129.91 44.7876 129.951 44.7827C129.991 44.7762 130.028 44.7697 130.061 44.7632L130.073 45.0098C130.037 45.0212 129.991 45.0301 129.934 45.0366C129.877 45.0448 129.82 45.0488 129.763 45.0488C129.65 45.0488 129.551 45.0285 129.465 44.9878C129.379 44.9455 129.311 44.8739 129.262 44.7729C129.213 44.6704 129.189 44.5312 129.189 44.3555V41.6797Z" fill="black"/>
<path d="M127.524 51.4453V51.6138L126.006 55H125.703L127.212 51.6968H125.188V51.4453H127.524Z" fill="black"/>
<path d="M120 17.25L121.533 15.3334L122 15.9167L120 18.4167L118 15.9167L118.467 15.3334L120 17.25Z" fill="#1D1B20"/>
<defs>
<filter id="filter0_d_469_136" x="0" y="0" width="147" height="84" filterUnits="userSpaceOnUse" color-interpolation-filters="sRGB">
<feFlood flood-opacity="0" result="BackgroundImageFix"/>
<feColorMatrix in="SourceAlpha" type="matrix" values="0 0 0 0 0 0 0 0 0 0 0 0 0 0 0 0 0 0 127 0" result="hardAlpha"/>
<feOffset/>
<feGaussianBlur stdDeviation="1"/>
<feComposite in2="hardAlpha" operator="out"/>
<feColorMatrix type="matrix" values="0 0 0 0 0 0 0 0 0 0 0 0 0 0 0 0 0 0 0.1 0"/>
<feBlend mode="normal" in2="BackgroundImageFix" result="effect1_dropShadow_469_136"/>
<feBlend mode="normal" in="SourceGraphic" in2="effect1_dropShadow_469_136" result="shape"/>
</filter>
</defs>
</svg>
