<svg width="163" height="355" viewBox="0 0 163 355" fill="none" xmlns="http://www.w3.org/2000/svg">
<g clip-path="url(#clip0_40_9)">
<rect width="163" height="355" fill="white"/>
<path d="M0 37H100C159 52.5 151 131.5 100 137H0V37Z" fill="#88D4AB"/>
<path d="M163.304 228H63.3044C4.3044 243.5 12.3044 322.5 63.3044 328H163.304V228Z" fill="#88D4AB"/>
<path d="M20.1719 149.059C20.0026 149.059 19.918 149.01 19.918 148.914C19.918 148.839 19.9648 148.801 20.0586 148.801L20.25 148.82C20.4062 148.82 20.5117 148.733 20.5664 148.559C20.6107 148.41 20.6328 148.145 20.6328 147.762V145.004C20.6328 144.621 20.6146 144.371 20.5781 144.254C20.5417 144.134 20.4974 144.053 20.4453 144.012C20.3958 143.967 20.3307 143.945 20.25 143.945L20.0586 143.961C19.9648 143.961 19.918 143.923 19.918 143.848C19.918 143.751 19.9896 143.703 20.1328 143.703C20.276 143.703 20.4115 143.714 20.5391 143.734C20.6693 143.755 20.8125 143.766 20.9688 143.766C21.1276 143.766 21.2669 143.755 21.3867 143.734C21.5091 143.714 21.6159 143.703 21.707 143.703C22.2643 143.703 22.7148 143.872 23.0586 144.211C23.3711 144.521 23.5273 144.895 23.5273 145.332C23.5273 145.736 23.3711 146.087 23.0586 146.387C22.7513 146.678 22.3997 146.824 22.0039 146.824C21.6992 146.824 21.4909 146.764 21.3789 146.645C21.3451 146.608 21.3281 146.569 21.3281 146.527C21.3281 146.483 21.3398 146.451 21.3633 146.43C21.3893 146.406 21.4206 146.395 21.457 146.395C21.4935 146.395 21.5443 146.419 21.6094 146.469C21.7109 146.542 21.8372 146.578 21.9883 146.578C22.1393 146.578 22.2669 146.549 22.3711 146.492C22.4779 146.432 22.5677 146.349 22.6406 146.242C22.7917 146.021 22.8672 145.723 22.8672 145.348C22.8672 144.926 22.75 144.59 22.5156 144.34C22.2891 144.098 21.9948 143.977 21.6328 143.977C21.5 143.977 21.4023 143.995 21.3398 144.031C21.2773 144.068 21.2461 144.13 21.2461 144.219V147.762C21.2461 148.155 21.263 148.409 21.2969 148.523C21.3333 148.635 21.3763 148.714 21.4258 148.758C21.4779 148.799 21.5456 148.82 21.6289 148.82L21.8164 148.801C21.9102 148.801 21.957 148.839 21.957 148.914C21.957 149.01 21.8737 149.059 21.707 149.059C21.6211 149.059 21.5299 149.051 21.4336 149.035C21.1211 148.986 20.8529 148.977 20.6289 149.008C20.4076 149.042 20.2552 149.059 20.1719 149.059ZM24.3164 149.059C24.1445 149.059 24.0586 149.01 24.0586 148.914C24.0586 148.839 24.1068 148.801 24.2031 148.801L24.3984 148.82C24.4583 148.82 24.5078 148.81 24.5469 148.789C24.5859 148.766 24.6159 148.717 24.6367 148.645C24.6784 148.512 24.6992 148.217 24.6992 147.762V144.852C24.6992 144.419 24.6094 144.19 24.4297 144.164C24.2995 144.143 24.2344 144.1 24.2344 144.035C24.2344 143.975 24.2956 143.934 24.418 143.91C24.5404 143.884 24.651 143.853 24.75 143.816C24.849 143.777 24.9362 143.741 25.0117 143.707C25.0872 143.671 25.151 143.639 25.2031 143.613C25.2578 143.587 25.2969 143.574 25.3203 143.574C25.3802 143.574 25.4102 143.604 25.4102 143.664C25.4102 143.693 25.4049 143.723 25.3945 143.754C25.3398 143.895 25.3112 144.073 25.3086 144.289C25.306 144.505 25.3047 144.682 25.3047 144.82V147.762C25.3047 148.217 25.3203 148.497 25.3516 148.602C25.3828 148.703 25.418 148.766 25.457 148.789C25.4961 148.81 25.5456 148.82 25.6055 148.82L25.8008 148.801C25.8971 148.801 25.9453 148.839 25.9453 148.914C25.9453 149.01 25.8594 149.059 25.6875 149.059C25.5885 149.059 25.4857 149.048 25.3789 149.027C25.2721 149.009 25.1497 149 25.0117 149C24.8737 149 24.7474 149.009 24.6328 149.027C24.5208 149.048 24.4154 149.059 24.3164 149.059ZM26.9336 148.562C26.7826 148.393 26.6654 148.194 26.582 147.965C26.5013 147.736 26.4609 147.482 26.4609 147.203C26.4609 146.922 26.5091 146.664 26.6055 146.43C26.7018 146.195 26.8346 145.995 27.0039 145.828C27.3555 145.482 27.7891 145.309 28.3047 145.309C28.7318 145.309 29.0768 145.449 29.3398 145.73C29.5898 146.001 29.7148 146.336 29.7148 146.734C29.7148 146.865 29.6966 146.954 29.6602 147.004C29.6263 147.051 29.5833 147.079 29.5312 147.09C29.4792 147.098 29.4076 147.105 29.3164 147.113C29.2253 147.118 29.1146 147.125 28.9844 147.133C28.8542 147.141 28.7083 147.148 28.5469 147.156C28.388 147.164 28.2253 147.173 28.0586 147.184C27.6758 147.207 27.3685 147.23 27.1367 147.254C27.194 147.954 27.4622 148.409 27.9414 148.617C28.0977 148.685 28.2643 148.719 28.4414 148.719C28.8164 148.719 29.1133 148.609 29.332 148.391C29.4258 148.297 29.4974 148.25 29.5469 148.25C29.6406 148.25 29.6875 148.306 29.6875 148.418C29.6875 148.475 29.6484 148.544 29.5703 148.625C29.4922 148.706 29.3802 148.789 29.2344 148.875C28.9766 149.023 28.6758 149.098 28.332 149.098C27.9883 149.098 27.707 149.051 27.4883 148.957C27.2721 148.861 27.0872 148.729 26.9336 148.562ZM27.1289 146.965C28.3503 146.902 28.9935 146.836 29.0586 146.766C29.082 146.74 29.0938 146.663 29.0938 146.535C29.0938 146.408 29.069 146.284 29.0195 146.164C28.9701 146.042 28.9036 145.938 28.8203 145.852C28.6484 145.677 28.4349 145.59 28.1797 145.59C27.8906 145.59 27.6471 145.711 27.4492 145.953C27.2409 146.206 27.1341 146.543 27.1289 146.965ZM33.8711 148.477C33.9466 148.477 33.9844 148.512 33.9844 148.582C33.9844 148.65 33.9089 148.715 33.7578 148.777C33.6068 148.84 33.5013 148.897 33.4414 148.949C33.3815 148.999 33.3372 149.035 33.3086 149.059C33.2799 149.085 33.2461 149.098 33.207 149.098C33.1289 149.098 33.0638 149.065 33.0117 149C32.9596 148.935 32.8893 148.796 32.8008 148.582C32.6523 148.751 32.4714 148.88 32.2578 148.969C32.0469 149.055 31.8372 149.098 31.6289 149.098C31.2357 149.098 30.931 148.997 30.7148 148.797C30.4987 148.596 30.3906 148.322 30.3906 147.973C30.3906 147.624 30.5534 147.341 30.8789 147.125C31.207 146.906 31.625 146.797 32.1328 146.797C32.2839 146.797 32.4831 146.823 32.7305 146.875V146.57C32.7305 145.901 32.4479 145.566 31.8828 145.566C31.5833 145.566 31.3633 145.704 31.2227 145.98C31.1003 146.228 30.9805 146.352 30.8633 146.352C30.7773 146.352 30.7018 146.327 30.6367 146.277C30.5742 146.228 30.543 146.165 30.543 146.09C30.543 146.014 30.582 145.931 30.6602 145.84C30.7383 145.746 30.8424 145.661 30.9727 145.586C31.2799 145.406 31.6172 145.316 31.9844 145.316C32.6354 145.316 33.056 145.529 33.2461 145.953C33.3164 146.104 33.3516 146.289 33.3516 146.508V148.066C33.3516 148.267 33.3711 148.396 33.4102 148.453C33.4492 148.51 33.5039 148.539 33.5742 148.539C33.6445 148.539 33.7018 148.529 33.7461 148.508C33.7904 148.487 33.832 148.477 33.8711 148.477ZM32.7305 147.238C32.543 147.132 32.306 147.078 32.0195 147.078C31.7331 147.078 31.5026 147.15 31.3281 147.293C31.1562 147.436 31.0703 147.629 31.0703 147.871C31.0703 148.111 31.1367 148.311 31.2695 148.473C31.4023 148.632 31.5729 148.711 31.7812 148.711C32.2266 148.711 32.5469 148.565 32.7422 148.273C32.7344 148.201 32.7305 148.12 32.7305 148.031V147.238ZM34.75 148.789C34.6302 148.703 34.5365 148.609 34.4688 148.508C34.401 148.404 34.3672 148.323 34.3672 148.266C34.3672 148.206 34.375 148.161 34.3906 148.133C34.4089 148.102 34.4323 148.073 34.4609 148.047C34.5286 147.982 34.5938 147.949 34.6562 147.949C34.7214 147.949 34.7708 147.965 34.8047 147.996C34.8385 148.025 34.8698 148.083 34.8984 148.172C34.9297 148.258 34.9727 148.341 35.0273 148.422C35.0846 148.503 35.1523 148.573 35.2305 148.633C35.3997 148.76 35.6068 148.824 35.8516 148.824C36.0677 148.824 36.2513 148.771 36.4023 148.664C36.5612 148.555 36.6406 148.418 36.6406 148.254C36.6406 148.087 36.569 147.941 36.4258 147.816C36.2721 147.684 36.0443 147.557 35.7422 147.438C35.4401 147.315 35.2253 147.212 35.0977 147.129C34.9701 147.046 34.8659 146.957 34.7852 146.863C34.6315 146.684 34.5547 146.478 34.5547 146.246C34.5547 145.98 34.6745 145.759 34.9141 145.582C35.1562 145.405 35.4596 145.316 35.8242 145.316C36.1393 145.316 36.4049 145.383 36.6211 145.516C36.8086 145.633 36.9023 145.757 36.9023 145.887C36.9023 145.954 36.8672 146.013 36.7969 146.062C36.7292 146.109 36.6641 146.133 36.6016 146.133C36.5417 146.133 36.4948 146.121 36.4609 146.098C36.4271 146.072 36.3763 146.007 36.3086 145.902C36.1758 145.697 35.974 145.594 35.7031 145.594C35.3984 145.594 35.1966 145.685 35.0977 145.867C35.069 145.919 35.0547 145.975 35.0547 146.035C35.0547 146.095 35.0664 146.154 35.0898 146.211C35.1159 146.266 35.1628 146.323 35.2305 146.383C35.3737 146.503 35.6367 146.642 36.0195 146.801C36.7695 147.111 37.1445 147.508 37.1445 147.992C37.1445 148.318 37.013 148.583 36.75 148.789C36.4844 148.995 36.1432 149.098 35.7266 149.098C35.3568 149.098 35.0312 148.995 34.75 148.789ZM38.2539 148.562C38.1029 148.393 37.9857 148.194 37.9023 147.965C37.8216 147.736 37.7812 147.482 37.7812 147.203C37.7812 146.922 37.8294 146.664 37.9258 146.43C38.0221 146.195 38.1549 145.995 38.3242 145.828C38.6758 145.482 39.1094 145.309 39.625 145.309C40.0521 145.309 40.3971 145.449 40.6602 145.73C40.9102 146.001 41.0352 146.336 41.0352 146.734C41.0352 146.865 41.0169 146.954 40.9805 147.004C40.9466 147.051 40.9036 147.079 40.8516 147.09C40.7995 147.098 40.7279 147.105 40.6367 147.113C40.5456 147.118 40.4349 147.125 40.3047 147.133C40.1745 147.141 40.0286 147.148 39.8672 147.156C39.7083 147.164 39.5456 147.173 39.3789 147.184C38.9961 147.207 38.6888 147.23 38.457 147.254C38.5143 147.954 38.7826 148.409 39.2617 148.617C39.418 148.685 39.5846 148.719 39.7617 148.719C40.1367 148.719 40.4336 148.609 40.6523 148.391C40.7461 148.297 40.8177 148.25 40.8672 148.25C40.9609 148.25 41.0078 148.306 41.0078 148.418C41.0078 148.475 40.9688 148.544 40.8906 148.625C40.8125 148.706 40.7005 148.789 40.5547 148.875C40.2969 149.023 39.9961 149.098 39.6523 149.098C39.3086 149.098 39.0273 149.051 38.8086 148.957C38.5924 148.861 38.4076 148.729 38.2539 148.562ZM38.4492 146.965C39.6706 146.902 40.3138 146.836 40.3789 146.766C40.4023 146.74 40.4141 146.663 40.4141 146.535C40.4141 146.408 40.3893 146.284 40.3398 146.164C40.2904 146.042 40.224 145.938 40.1406 145.852C39.9688 145.677 39.7552 145.59 39.5 145.59C39.2109 145.59 38.9674 145.711 38.7695 145.953C38.5612 146.206 38.4544 146.543 38.4492 146.965ZM44.0859 148.789C43.9661 148.703 43.8724 148.609 43.8047 148.508C43.737 148.404 43.7031 148.323 43.7031 148.266C43.7031 148.206 43.7109 148.161 43.7266 148.133C43.7448 148.102 43.7682 148.073 43.7969 148.047C43.8646 147.982 43.9297 147.949 43.9922 147.949C44.0573 147.949 44.1068 147.965 44.1406 147.996C44.1745 148.025 44.2057 148.083 44.2344 148.172C44.2656 148.258 44.3086 148.341 44.3633 148.422C44.4206 148.503 44.4883 148.573 44.5664 148.633C44.7357 148.76 44.9427 148.824 45.1875 148.824C45.4036 148.824 45.5872 148.771 45.7383 148.664C45.8971 148.555 45.9766 148.418 45.9766 148.254C45.9766 148.087 45.9049 147.941 45.7617 147.816C45.6081 147.684 45.3802 147.557 45.0781 147.438C44.776 147.315 44.5612 147.212 44.4336 147.129C44.306 147.046 44.2018 146.957 44.1211 146.863C43.9674 146.684 43.8906 146.478 43.8906 146.246C43.8906 145.98 44.0104 145.759 44.25 145.582C44.4922 145.405 44.7956 145.316 45.1602 145.316C45.4753 145.316 45.7409 145.383 45.957 145.516C46.1445 145.633 46.2383 145.757 46.2383 145.887C46.2383 145.954 46.2031 146.013 46.1328 146.062C46.0651 146.109 46 146.133 45.9375 146.133C45.8776 146.133 45.8307 146.121 45.7969 146.098C45.763 146.072 45.7122 146.007 45.6445 145.902C45.5117 145.697 45.3099 145.594 45.0391 145.594C44.7344 145.594 44.5326 145.685 44.4336 145.867C44.4049 145.919 44.3906 145.975 44.3906 146.035C44.3906 146.095 44.4023 146.154 44.4258 146.211C44.4518 146.266 44.4987 146.323 44.5664 146.383C44.7096 146.503 44.9727 146.642 45.3555 146.801C46.1055 147.111 46.4805 147.508 46.4805 147.992C46.4805 148.318 46.349 148.583 46.0859 148.789C45.8203 148.995 45.4792 149.098 45.0625 149.098C44.6927 149.098 44.3672 148.995 44.0859 148.789ZM47.5898 148.562C47.4388 148.393 47.3216 148.194 47.2383 147.965C47.1576 147.736 47.1172 147.482 47.1172 147.203C47.1172 146.922 47.1654 146.664 47.2617 146.43C47.3581 146.195 47.4909 145.995 47.6602 145.828C48.0117 145.482 48.4453 145.309 48.9609 145.309C49.388 145.309 49.7331 145.449 49.9961 145.73C50.2461 146.001 50.3711 146.336 50.3711 146.734C50.3711 146.865 50.3529 146.954 50.3164 147.004C50.2826 147.051 50.2396 147.079 50.1875 147.09C50.1354 147.098 50.0638 147.105 49.9727 147.113C49.8815 147.118 49.7708 147.125 49.6406 147.133C49.5104 147.141 49.3646 147.148 49.2031 147.156C49.0443 147.164 48.8815 147.173 48.7148 147.184C48.332 147.207 48.0247 147.23 47.793 147.254C47.8503 147.954 48.1185 148.409 48.5977 148.617C48.7539 148.685 48.9206 148.719 49.0977 148.719C49.4727 148.719 49.7695 148.609 49.9883 148.391C50.082 148.297 50.1536 148.25 50.2031 148.25C50.2969 148.25 50.3438 148.306 50.3438 148.418C50.3438 148.475 50.3047 148.544 50.2266 148.625C50.1484 148.706 50.0365 148.789 49.8906 148.875C49.6328 149.023 49.332 149.098 48.9883 149.098C48.6445 149.098 48.3633 149.051 48.1445 148.957C47.9284 148.861 47.7435 148.729 47.5898 148.562ZM47.7852 146.965C49.0065 146.902 49.6497 146.836 49.7148 146.766C49.7383 146.74 49.75 146.663 49.75 146.535C49.75 146.408 49.7253 146.284 49.6758 146.164C49.6263 146.042 49.5599 145.938 49.4766 145.852C49.3047 145.677 49.0911 145.59 48.8359 145.59C48.5469 145.59 48.3034 145.711 48.1055 145.953C47.8971 146.206 47.7904 146.543 47.7852 146.965ZM51.1289 149.059C50.957 149.059 50.8711 149.01 50.8711 148.914C50.8711 148.839 50.9193 148.801 51.0156 148.801L51.2109 148.82C51.2708 148.82 51.3203 148.81 51.3594 148.789C51.3984 148.766 51.4284 148.717 51.4492 148.645C51.4909 148.512 51.5117 148.217 51.5117 147.762V144.852C51.5117 144.419 51.4219 144.19 51.2422 144.164C51.112 144.143 51.0469 144.1 51.0469 144.035C51.0469 143.975 51.1081 143.934 51.2305 143.91C51.3529 143.884 51.4635 143.853 51.5625 143.816C51.6615 143.777 51.7487 143.741 51.8242 143.707C51.8997 143.671 51.9635 143.639 52.0156 143.613C52.0703 143.587 52.1094 143.574 52.1328 143.574C52.1927 143.574 52.2227 143.604 52.2227 143.664C52.2227 143.693 52.2174 143.723 52.207 143.754C52.1523 143.895 52.1237 144.073 52.1211 144.289C52.1185 144.505 52.1172 144.682 52.1172 144.82V147.762C52.1172 148.217 52.1328 148.497 52.1641 148.602C52.1953 148.703 52.2305 148.766 52.2695 148.789C52.3086 148.81 52.3581 148.82 52.418 148.82L52.6133 148.801C52.7096 148.801 52.7578 148.839 52.7578 148.914C52.7578 149.01 52.6719 149.059 52.5 149.059C52.401 149.059 52.2982 149.048 52.1914 149.027C52.0846 149.009 51.9622 149 51.8242 149C51.6862 149 51.5599 149.009 51.4453 149.027C51.3333 149.048 51.2279 149.059 51.1289 149.059ZM53.7461 148.562C53.5951 148.393 53.4779 148.194 53.3945 147.965C53.3138 147.736 53.2734 147.482 53.2734 147.203C53.2734 146.922 53.3216 146.664 53.418 146.43C53.5143 146.195 53.6471 145.995 53.8164 145.828C54.168 145.482 54.6016 145.309 55.1172 145.309C55.5443 145.309 55.8893 145.449 56.1523 145.73C56.4023 146.001 56.5273 146.336 56.5273 146.734C56.5273 146.865 56.5091 146.954 56.4727 147.004C56.4388 147.051 56.3958 147.079 56.3438 147.09C56.2917 147.098 56.2201 147.105 56.1289 147.113C56.0378 147.118 55.9271 147.125 55.7969 147.133C55.6667 147.141 55.5208 147.148 55.3594 147.156C55.2005 147.164 55.0378 147.173 54.8711 147.184C54.4883 147.207 54.181 147.23 53.9492 147.254C54.0065 147.954 54.2747 148.409 54.7539 148.617C54.9102 148.685 55.0768 148.719 55.2539 148.719C55.6289 148.719 55.9258 148.609 56.1445 148.391C56.2383 148.297 56.3099 148.25 56.3594 148.25C56.4531 148.25 56.5 148.306 56.5 148.418C56.5 148.475 56.4609 148.544 56.3828 148.625C56.3047 148.706 56.1927 148.789 56.0469 148.875C55.7891 149.023 55.4883 149.098 55.1445 149.098C54.8008 149.098 54.5195 149.051 54.3008 148.957C54.0846 148.861 53.8997 148.729 53.7461 148.562ZM53.9414 146.965C55.1628 146.902 55.806 146.836 55.8711 146.766C55.8945 146.74 55.9062 146.663 55.9062 146.535C55.9062 146.408 55.8815 146.284 55.832 146.164C55.7826 146.042 55.7161 145.938 55.6328 145.852C55.4609 145.677 55.2474 145.59 54.9922 145.59C54.7031 145.59 54.4596 145.711 54.2617 145.953C54.0534 146.206 53.9466 146.543 53.9414 146.965ZM57.1328 147.211C57.1328 146.935 57.1823 146.68 57.2812 146.445C57.3828 146.208 57.5195 146.007 57.6914 145.84C58.056 145.491 58.5156 145.316 59.0703 145.316C59.3984 145.327 59.6836 145.404 59.9258 145.547C60.1732 145.69 60.3021 145.866 60.3125 146.074C60.3125 146.186 60.2383 146.26 60.0898 146.297C60.0508 146.305 60.0156 146.309 59.9844 146.309C59.8646 146.309 59.7669 146.227 59.6914 146.062C59.543 145.753 59.2917 145.598 58.9375 145.598C58.625 145.598 58.3633 145.727 58.1523 145.984C57.9284 146.258 57.8164 146.618 57.8164 147.066C57.8164 147.564 57.9323 147.964 58.1641 148.266C58.4062 148.583 58.737 148.742 59.1562 148.742C59.4427 148.742 59.694 148.633 59.9102 148.414C60.0039 148.32 60.0742 148.273 60.1211 148.273C60.2174 148.273 60.2656 148.322 60.2656 148.418C60.2656 148.512 60.1732 148.626 59.9883 148.762C59.6888 148.986 59.3203 149.098 58.8828 149.098C58.3594 149.098 57.9336 148.919 57.6055 148.562C57.2904 148.216 57.1328 147.766 57.1328 147.211ZM63.0273 145.703C63.0273 145.773 62.9857 145.809 62.9023 145.809L61.793 145.797V147.961C61.793 148.365 61.8906 148.604 62.0859 148.68C62.1458 148.703 62.2161 148.715 62.2969 148.715C62.3776 148.715 62.4505 148.702 62.5156 148.676C62.5833 148.647 62.6432 148.617 62.6953 148.586C62.7474 148.555 62.7917 148.526 62.8281 148.5C62.8646 148.471 62.8984 148.457 62.9297 148.457C62.9635 148.457 62.9935 148.475 63.0195 148.512C63.0456 148.548 63.0586 148.585 63.0586 148.621C63.0586 148.712 62.9427 148.822 62.7109 148.949C62.5339 149.048 62.3112 149.098 62.043 149.098C61.7747 149.098 61.5651 149.003 61.4141 148.812C61.263 148.62 61.1875 148.354 61.1875 148.016V145.785H60.9492C60.7617 145.785 60.668 145.737 60.668 145.641C60.668 145.57 60.7201 145.522 60.8242 145.496C60.9284 145.47 61.0182 145.424 61.0938 145.359C61.1693 145.292 61.2305 145.216 61.2773 145.133C61.3268 145.047 61.3659 144.958 61.3945 144.867C61.4232 144.776 61.4492 144.693 61.4727 144.617C61.5299 144.445 61.5951 144.359 61.668 144.359C61.7513 144.359 61.793 144.434 61.793 144.582V145.465L62.8906 145.441C62.9453 145.441 62.9883 145.507 63.0195 145.637C63.0247 145.665 63.0273 145.688 63.0273 145.703ZM69.0078 145.348C69.1146 145.348 69.168 145.38 69.168 145.445C69.168 145.5 69.1185 145.546 69.0195 145.582C68.9232 145.616 68.849 145.648 68.7969 145.68C68.7448 145.708 68.6966 145.75 68.6523 145.805C68.5612 145.917 68.4648 146.111 68.3633 146.387L67.7773 147.98C67.2747 149.35 66.9115 150.174 66.6875 150.453C66.4661 150.734 66.2031 150.875 65.8984 150.875C65.6875 150.875 65.5352 150.846 65.4414 150.789C65.2852 150.69 65.207 150.589 65.207 150.484C65.207 150.411 65.2331 150.352 65.2852 150.305C65.3711 150.224 65.4492 150.184 65.5195 150.184C65.5924 150.184 65.6562 150.195 65.7109 150.219C65.7656 150.245 65.8177 150.272 65.8672 150.301C65.9193 150.332 65.9661 150.359 66.0078 150.383C66.0495 150.409 66.0872 150.422 66.1211 150.422C66.1549 150.422 66.1901 150.419 66.2266 150.414C66.2656 150.409 66.3073 150.391 66.3516 150.359C66.3958 150.331 66.444 150.285 66.4961 150.223C66.5482 150.16 66.6055 150.073 66.668 149.961C66.806 149.708 66.9609 149.352 67.1328 148.891C67.0208 148.807 66.8438 148.507 66.6016 147.988L65.7383 146.082C65.6602 145.913 65.6003 145.805 65.5586 145.758C65.4909 145.672 65.3997 145.616 65.2852 145.59C65.1732 145.561 65.1172 145.512 65.1172 145.441C65.1172 145.418 65.1315 145.397 65.1602 145.379C65.1862 145.358 65.2253 145.348 65.2773 145.348L65.8828 145.391C66.0417 145.391 66.1615 145.385 66.2422 145.375C66.3802 145.357 66.4935 145.348 66.582 145.348C66.7591 145.348 66.8477 145.385 66.8477 145.461C66.8477 145.539 66.7435 145.583 66.5352 145.594C66.4023 145.602 66.3268 145.637 66.3086 145.699C66.3034 145.717 66.3008 145.737 66.3008 145.758C66.3008 145.792 66.3398 145.893 66.418 146.062L67.3711 148.215C67.3737 148.215 67.375 148.212 67.375 148.207C67.375 148.202 67.3763 148.197 67.3789 148.191L68.043 146.234C68.082 146.117 68.1146 146.021 68.1406 145.945C68.1693 145.867 68.1836 145.802 68.1836 145.75C68.1836 145.695 68.1654 145.658 68.1289 145.637C68.0924 145.616 68.0221 145.602 67.918 145.594C67.7227 145.576 67.625 145.53 67.625 145.457C67.625 145.384 67.7135 145.348 67.8906 145.348L68.5547 145.387L69.0078 145.348ZM69.2617 147.266C69.2617 147.013 69.3073 146.768 69.3984 146.531C69.4896 146.294 69.6185 146.086 69.7852 145.906C70.1497 145.513 70.6042 145.316 71.1484 145.316C71.7526 145.316 72.2174 145.497 72.543 145.859C72.8372 146.188 72.9844 146.613 72.9844 147.137C72.9844 147.665 72.8086 148.122 72.457 148.508C72.0977 148.901 71.6445 149.098 71.0977 149.098C70.4935 149.098 70.0299 148.917 69.707 148.555C69.4102 148.227 69.2617 147.797 69.2617 147.266ZM69.9219 147.102C69.9219 147.357 69.957 147.595 70.0273 147.816C70.0977 148.038 70.194 148.221 70.3164 148.367C70.5586 148.664 70.8646 148.812 71.2344 148.812C71.5625 148.812 71.8294 148.682 72.0352 148.422C72.2487 148.151 72.3555 147.802 72.3555 147.375C72.3555 146.81 72.2253 146.367 71.9648 146.047C71.7201 145.753 71.4128 145.605 71.043 145.605C70.7148 145.605 70.4479 145.736 70.2422 145.996C70.0286 146.267 69.9219 146.635 69.9219 147.102ZM77.5039 148.484C77.5794 148.484 77.6172 148.518 77.6172 148.586C77.6172 148.622 77.6003 148.654 77.5664 148.68C77.5352 148.706 77.4857 148.733 77.418 148.762C77.3503 148.788 77.2969 148.81 77.2578 148.828C77.2188 148.846 77.1823 148.865 77.1484 148.883C77.0938 148.911 77.0339 148.948 76.9688 148.992C76.8594 149.062 76.7839 149.098 76.7422 149.098C76.7031 149.098 76.6667 149.087 76.6328 149.066C76.6016 149.048 76.569 149.013 76.5352 148.961C76.457 148.839 76.4154 148.659 76.4102 148.422C76.1888 148.734 75.9049 148.934 75.5586 149.02C75.4518 149.046 75.3268 149.059 75.1836 149.059C75.0404 149.059 74.8919 149.035 74.7383 148.988C74.5872 148.939 74.457 148.859 74.3477 148.75C74.1133 148.523 73.9961 148.18 73.9961 147.719V146.594C73.9961 146.344 73.9805 146.181 73.9492 146.105C73.9206 146.03 73.888 145.979 73.8516 145.953C73.8177 145.927 73.7721 145.909 73.7148 145.898C73.5977 145.872 73.5391 145.829 73.5391 145.77C73.5391 145.704 73.6055 145.659 73.7383 145.633C74.0326 145.573 74.2279 145.514 74.3242 145.457C74.4622 145.379 74.5573 145.34 74.6094 145.34C74.6615 145.34 74.6875 145.37 74.6875 145.43C74.6875 145.458 74.681 145.488 74.668 145.52C74.6159 145.66 74.5885 145.835 74.5859 146.043C74.5833 146.251 74.582 146.424 74.582 146.562V147.562C74.582 148.104 74.7565 148.435 75.1055 148.555C75.2096 148.589 75.3125 148.605 75.4141 148.605C75.5156 148.605 75.6107 148.594 75.6992 148.57C75.7904 148.544 75.8789 148.505 75.9648 148.453C76.1497 148.336 76.2969 148.164 76.4062 147.938L76.418 146.508C76.418 146.286 76.3984 146.145 76.3594 146.082C76.3203 146.017 76.2773 145.974 76.2305 145.953C76.1836 145.932 76.1094 145.914 76.0078 145.898C75.9089 145.883 75.8594 145.841 75.8594 145.773C75.8594 145.714 75.9219 145.671 76.0469 145.645C76.1745 145.618 76.2917 145.587 76.3984 145.551C76.5052 145.512 76.599 145.475 76.6797 145.441C76.763 145.408 76.8307 145.379 76.8828 145.355C76.9375 145.329 76.9753 145.316 76.9961 145.316C77.056 145.316 77.0859 145.346 77.0859 145.406C77.0859 145.435 77.0794 145.465 77.0664 145.496C77.0143 145.637 76.987 145.815 76.9844 146.031C76.9818 146.247 76.9805 146.424 76.9805 146.562V148.027C76.9805 148.228 76.9974 148.355 77.0312 148.41C77.0833 148.496 77.1576 148.539 77.2539 148.539L77.5039 148.484ZM78.2812 149.059C78.1068 149.059 78.0195 149.01 78.0195 148.914C78.0195 148.839 78.0677 148.801 78.1641 148.801L78.3594 148.82C78.4193 148.82 78.4688 148.81 78.5078 148.789C78.5469 148.766 78.5768 148.717 78.5977 148.645C78.6393 148.512 78.6602 148.217 78.6602 147.762V146.594C78.6602 146.328 78.6432 146.163 78.6094 146.098C78.5781 146.03 78.5391 145.984 78.4922 145.961C78.4479 145.935 78.3737 145.914 78.2695 145.898C78.168 145.883 78.1172 145.842 78.1172 145.777C78.1172 145.717 78.1836 145.674 78.3164 145.648C78.6263 145.583 78.8398 145.518 78.957 145.453C79.1159 145.362 79.224 145.316 79.2812 145.316C79.3411 145.316 79.3711 145.346 79.3711 145.406C79.3711 145.435 79.3646 145.465 79.3516 145.496C79.3411 145.527 79.3294 145.565 79.3164 145.609C79.2956 145.698 79.2799 145.865 79.2695 146.109C79.4961 145.729 79.7695 145.492 80.0898 145.398C80.1836 145.37 80.2878 145.355 80.4023 145.355C80.5195 145.355 80.6224 145.397 80.7109 145.48C80.8021 145.564 80.8477 145.652 80.8477 145.746C80.8477 145.84 80.8372 145.909 80.8164 145.953C80.7956 145.997 80.7695 146.035 80.7383 146.066C80.6706 146.134 80.6094 146.168 80.5547 146.168C80.5026 146.168 80.4622 146.155 80.4336 146.129C80.4049 146.1 80.3724 146.049 80.3359 145.977C80.2708 145.846 80.1979 145.781 80.1172 145.781C80.0365 145.781 79.9596 145.799 79.8867 145.836C79.8138 145.87 79.7409 145.922 79.668 145.992C79.5091 146.141 79.375 146.342 79.2656 146.598V147.762C79.2656 148.257 79.2786 148.548 79.3047 148.637C79.3333 148.723 79.3672 148.775 79.4062 148.793C79.4479 148.809 79.5039 148.816 79.5742 148.816L79.9219 148.785C79.974 148.785 80.0156 148.798 80.0469 148.824C80.0781 148.848 80.0938 148.878 80.0938 148.914C80.0938 149.01 79.9987 149.059 79.8086 149.059L78.9844 149C78.8516 149 78.7253 149.009 78.6055 149.027C78.4883 149.048 78.3802 149.059 78.2812 149.059ZM83.4375 149.059C83.263 149.059 83.1758 149.01 83.1758 148.914C83.1758 148.839 83.224 148.801 83.3203 148.801L83.5156 148.82C83.5755 148.82 83.625 148.81 83.6641 148.789C83.7031 148.766 83.7331 148.717 83.7539 148.645C83.7956 148.512 83.8164 148.217 83.8164 147.762V146.594C83.8164 146.328 83.7995 146.163 83.7656 146.098C83.7344 146.03 83.6953 145.984 83.6484 145.961C83.6042 145.935 83.5299 145.914 83.4258 145.898C83.3242 145.883 83.2734 145.842 83.2734 145.777C83.2734 145.717 83.3398 145.674 83.4727 145.648C83.7826 145.583 83.9961 145.518 84.1133 145.453C84.2721 145.362 84.3802 145.316 84.4375 145.316C84.4974 145.316 84.5273 145.346 84.5273 145.406C84.5273 145.435 84.5208 145.465 84.5078 145.496C84.4974 145.527 84.4857 145.565 84.4727 145.609C84.4518 145.698 84.4362 145.865 84.4258 146.109C84.6523 145.729 84.9258 145.492 85.2461 145.398C85.3398 145.37 85.444 145.355 85.5586 145.355C85.6758 145.355 85.7786 145.397 85.8672 145.48C85.9583 145.564 86.0039 145.652 86.0039 145.746C86.0039 145.84 85.9935 145.909 85.9727 145.953C85.9518 145.997 85.9258 146.035 85.8945 146.066C85.8268 146.134 85.7656 146.168 85.7109 146.168C85.6589 146.168 85.6185 146.155 85.5898 146.129C85.5612 146.1 85.5286 146.049 85.4922 145.977C85.4271 145.846 85.3542 145.781 85.2734 145.781C85.1927 145.781 85.1159 145.799 85.043 145.836C84.9701 145.87 84.8971 145.922 84.8242 145.992C84.6654 146.141 84.5312 146.342 84.4219 146.598V147.762C84.4219 148.257 84.4349 148.548 84.4609 148.637C84.4896 148.723 84.5234 148.775 84.5625 148.793C84.6042 148.809 84.6602 148.816 84.7305 148.816L85.0781 148.785C85.1302 148.785 85.1719 148.798 85.2031 148.824C85.2344 148.848 85.25 148.878 85.25 148.914C85.25 149.01 85.1549 149.059 84.9648 149.059L84.1406 149C84.0078 149 83.8815 149.009 83.7617 149.027C83.6445 149.048 83.5365 149.059 83.4375 149.059ZM86.3789 147.266C86.3789 147.013 86.4245 146.768 86.5156 146.531C86.6068 146.294 86.7357 146.086 86.9023 145.906C87.2669 145.513 87.7214 145.316 88.2656 145.316C88.8698 145.316 89.3346 145.497 89.6602 145.859C89.9544 146.188 90.1016 146.613 90.1016 147.137C90.1016 147.665 89.9258 148.122 89.5742 148.508C89.2148 148.901 88.7617 149.098 88.2148 149.098C87.6107 149.098 87.1471 148.917 86.8242 148.555C86.5273 148.227 86.3789 147.797 86.3789 147.266ZM87.0391 147.102C87.0391 147.357 87.0742 147.595 87.1445 147.816C87.2148 148.038 87.3112 148.221 87.4336 148.367C87.6758 148.664 87.9818 148.812 88.3516 148.812C88.6797 148.812 88.9466 148.682 89.1523 148.422C89.3659 148.151 89.4727 147.802 89.4727 147.375C89.4727 146.81 89.3424 146.367 89.082 146.047C88.8372 145.753 88.5299 145.605 88.1602 145.605C87.832 145.605 87.5651 145.736 87.3594 145.996C87.1458 146.267 87.0391 146.635 87.0391 147.102ZM90.8555 149.059C90.6836 149.059 90.5977 149.01 90.5977 148.914C90.5977 148.839 90.6458 148.801 90.7422 148.801L90.9375 148.82C90.9974 148.82 91.0469 148.81 91.0859 148.789C91.125 148.766 91.1549 148.717 91.1758 148.645C91.2174 148.512 91.2383 148.217 91.2383 147.762V144.852C91.2383 144.419 91.1484 144.19 90.9688 144.164C90.8385 144.143 90.7734 144.1 90.7734 144.035C90.7734 143.975 90.8346 143.934 90.957 143.91C91.0794 143.884 91.1901 143.853 91.2891 143.816C91.388 143.777 91.4753 143.741 91.5508 143.707C91.6263 143.671 91.6901 143.639 91.7422 143.613C91.7969 143.587 91.8359 143.574 91.8594 143.574C91.9193 143.574 91.9492 143.604 91.9492 143.664C91.9492 143.693 91.944 143.723 91.9336 143.754C91.8789 143.895 91.8503 144.073 91.8477 144.289C91.8451 144.505 91.8438 144.682 91.8438 144.82V147.762C91.8438 148.217 91.8594 148.497 91.8906 148.602C91.9219 148.703 91.957 148.766 91.9961 148.789C92.0352 148.81 92.0846 148.82 92.1445 148.82L92.3398 148.801C92.4362 148.801 92.4844 148.839 92.4844 148.914C92.4844 149.01 92.3984 149.059 92.2266 149.059C92.1276 149.059 92.0247 149.048 91.918 149.027C91.8112 149.009 91.6888 149 91.5508 149C91.4128 149 91.2865 149.009 91.1719 149.027C91.0599 149.048 90.9544 149.059 90.8555 149.059ZM93.4727 148.562C93.3216 148.393 93.2044 148.194 93.1211 147.965C93.0404 147.736 93 147.482 93 147.203C93 146.922 93.0482 146.664 93.1445 146.43C93.2409 146.195 93.3737 145.995 93.543 145.828C93.8945 145.482 94.3281 145.309 94.8438 145.309C95.2708 145.309 95.6159 145.449 95.8789 145.73C96.1289 146.001 96.2539 146.336 96.2539 146.734C96.2539 146.865 96.2357 146.954 96.1992 147.004C96.1654 147.051 96.1224 147.079 96.0703 147.09C96.0182 147.098 95.9466 147.105 95.8555 147.113C95.7643 147.118 95.6536 147.125 95.5234 147.133C95.3932 147.141 95.2474 147.148 95.0859 147.156C94.9271 147.164 94.7643 147.173 94.5977 147.184C94.2148 147.207 93.9076 147.23 93.6758 147.254C93.7331 147.954 94.0013 148.409 94.4805 148.617C94.6367 148.685 94.8034 148.719 94.9805 148.719C95.3555 148.719 95.6523 148.609 95.8711 148.391C95.9648 148.297 96.0365 148.25 96.0859 148.25C96.1797 148.25 96.2266 148.306 96.2266 148.418C96.2266 148.475 96.1875 148.544 96.1094 148.625C96.0312 148.706 95.9193 148.789 95.7734 148.875C95.5156 149.023 95.2148 149.098 94.8711 149.098C94.5273 149.098 94.2461 149.051 94.0273 148.957C93.8112 148.861 93.6263 148.729 93.4727 148.562ZM93.668 146.965C94.8893 146.902 95.5326 146.836 95.5977 146.766C95.6211 146.74 95.6328 146.663 95.6328 146.535C95.6328 146.408 95.6081 146.284 95.5586 146.164C95.5091 146.042 95.4427 145.938 95.3594 145.852C95.1875 145.677 94.974 145.59 94.7188 145.59C94.4297 145.59 94.1862 145.711 93.9883 145.953C93.7799 146.206 93.6732 146.543 93.668 146.965ZM101.098 145.703C101.098 145.773 101.056 145.809 100.973 145.809L99.8633 145.797V147.961C99.8633 148.365 99.9609 148.604 100.156 148.68C100.216 148.703 100.286 148.715 100.367 148.715C100.448 148.715 100.521 148.702 100.586 148.676C100.654 148.647 100.714 148.617 100.766 148.586C100.818 148.555 100.862 148.526 100.898 148.5C100.935 148.471 100.969 148.457 101 148.457C101.034 148.457 101.064 148.475 101.09 148.512C101.116 148.548 101.129 148.585 101.129 148.621C101.129 148.712 101.013 148.822 100.781 148.949C100.604 149.048 100.382 149.098 100.113 149.098C99.8451 149.098 99.6354 149.003 99.4844 148.812C99.3333 148.62 99.2578 148.354 99.2578 148.016V145.785H99.0195C98.832 145.785 98.7383 145.737 98.7383 145.641C98.7383 145.57 98.7904 145.522 98.8945 145.496C98.9987 145.47 99.0885 145.424 99.1641 145.359C99.2396 145.292 99.3008 145.216 99.3477 145.133C99.3971 145.047 99.4362 144.958 99.4648 144.867C99.4935 144.776 99.5195 144.693 99.543 144.617C99.6003 144.445 99.6654 144.359 99.7383 144.359C99.8216 144.359 99.8633 144.434 99.8633 144.582V145.465L100.961 145.441C101.016 145.441 101.059 145.507 101.09 145.637C101.095 145.665 101.098 145.688 101.098 145.703ZM101.566 147.266C101.566 147.013 101.612 146.768 101.703 146.531C101.794 146.294 101.923 146.086 102.09 145.906C102.454 145.513 102.909 145.316 103.453 145.316C104.057 145.316 104.522 145.497 104.848 145.859C105.142 146.188 105.289 146.613 105.289 147.137C105.289 147.665 105.113 148.122 104.762 148.508C104.402 148.901 103.949 149.098 103.402 149.098C102.798 149.098 102.335 148.917 102.012 148.555C101.715 148.227 101.566 147.797 101.566 147.266ZM102.227 147.102C102.227 147.357 102.262 147.595 102.332 147.816C102.402 148.038 102.499 148.221 102.621 148.367C102.863 148.664 103.169 148.812 103.539 148.812C103.867 148.812 104.134 148.682 104.34 148.422C104.553 148.151 104.66 147.802 104.66 147.375C104.66 146.81 104.53 146.367 104.27 146.047C104.025 145.753 103.717 145.605 103.348 145.605C103.02 145.605 102.753 145.736 102.547 145.996C102.333 146.267 102.227 146.635 102.227 147.102ZM108.98 147.742C108.829 147.87 108.754 147.953 108.754 147.992C108.754 148.031 108.763 148.066 108.781 148.098C108.802 148.126 108.845 148.156 108.91 148.188C109.059 148.253 109.312 148.306 109.672 148.348C110.034 148.387 110.336 148.441 110.578 148.512C110.82 148.582 111.017 148.667 111.168 148.766C111.454 148.953 111.598 149.214 111.598 149.547C111.598 149.904 111.409 150.212 111.031 150.473C110.651 150.733 110.201 150.863 109.68 150.863C109.156 150.863 108.73 150.757 108.402 150.543C108.072 150.327 107.906 150.053 107.906 149.723C107.906 149.301 108.185 148.982 108.742 148.766C108.438 148.674 108.259 148.557 108.207 148.414C108.189 148.37 108.18 148.324 108.18 148.277C108.18 148.147 108.365 147.928 108.734 147.621C108.354 147.379 108.164 147.029 108.164 146.57C108.169 146.219 108.306 145.924 108.574 145.688C108.855 145.44 109.22 145.316 109.668 145.316C109.863 145.316 110.056 145.352 110.246 145.422C110.361 145.164 110.522 144.961 110.73 144.812C110.91 144.682 111.094 144.617 111.281 144.617C111.497 144.617 111.647 144.697 111.73 144.855C111.757 144.902 111.77 144.956 111.77 145.016C111.77 145.076 111.737 145.13 111.672 145.18C111.609 145.229 111.549 145.254 111.492 145.254C111.385 145.254 111.302 145.229 111.242 145.18C111.146 145.099 111.052 145.059 110.961 145.059C110.87 145.059 110.78 145.103 110.691 145.191C110.605 145.277 110.54 145.396 110.496 145.547C110.905 145.797 111.109 146.142 111.109 146.582C111.109 146.931 110.967 147.228 110.684 147.473C110.389 147.723 110.03 147.848 109.605 147.848C109.368 147.848 109.16 147.812 108.98 147.742ZM109.105 147.281C109.191 147.378 109.289 147.452 109.398 147.504C109.51 147.553 109.62 147.578 109.727 147.578C109.836 147.578 109.932 147.56 110.016 147.523C110.102 147.487 110.176 147.432 110.238 147.359C110.371 147.203 110.438 147.009 110.438 146.777C110.438 146.546 110.417 146.362 110.375 146.227C110.336 146.089 110.277 145.971 110.199 145.875C110.04 145.68 109.822 145.582 109.543 145.582C109.223 145.582 109.001 145.747 108.879 146.078C108.842 146.182 108.824 146.314 108.824 146.473C108.824 146.629 108.849 146.779 108.898 146.922C108.951 147.062 109.02 147.182 109.105 147.281ZM109.055 148.844C108.685 148.987 108.5 149.237 108.5 149.594C108.5 149.826 108.625 150.029 108.875 150.203C109.141 150.388 109.475 150.48 109.879 150.48C110.467 150.48 110.837 150.352 110.988 150.094C111.043 150.003 111.07 149.897 111.07 149.777C111.07 149.658 111.051 149.556 111.012 149.473C110.973 149.389 110.902 149.315 110.801 149.25C110.595 149.115 110.236 149.014 109.723 148.949C109.384 148.91 109.161 148.875 109.055 148.844ZM112.465 148.562C112.314 148.393 112.197 148.194 112.113 147.965C112.033 147.736 111.992 147.482 111.992 147.203C111.992 146.922 112.04 146.664 112.137 146.43C112.233 146.195 112.366 145.995 112.535 145.828C112.887 145.482 113.32 145.309 113.836 145.309C114.263 145.309 114.608 145.449 114.871 145.73C115.121 146.001 115.246 146.336 115.246 146.734C115.246 146.865 115.228 146.954 115.191 147.004C115.158 147.051 115.115 147.079 115.062 147.09C115.01 147.098 114.939 147.105 114.848 147.113C114.757 147.118 114.646 147.125 114.516 147.133C114.385 147.141 114.24 147.148 114.078 147.156C113.919 147.164 113.757 147.173 113.59 147.184C113.207 147.207 112.9 147.23 112.668 147.254C112.725 147.954 112.993 148.409 113.473 148.617C113.629 148.685 113.796 148.719 113.973 148.719C114.348 148.719 114.645 148.609 114.863 148.391C114.957 148.297 115.029 148.25 115.078 148.25C115.172 148.25 115.219 148.306 115.219 148.418C115.219 148.475 115.18 148.544 115.102 148.625C115.023 148.706 114.911 148.789 114.766 148.875C114.508 149.023 114.207 149.098 113.863 149.098C113.52 149.098 113.238 149.051 113.02 148.957C112.803 148.861 112.618 148.729 112.465 148.562ZM112.66 146.965C113.882 146.902 114.525 146.836 114.59 146.766C114.613 146.74 114.625 146.663 114.625 146.535C114.625 146.408 114.6 146.284 114.551 146.164C114.501 146.042 114.435 145.938 114.352 145.852C114.18 145.677 113.966 145.59 113.711 145.59C113.422 145.59 113.178 145.711 112.98 145.953C112.772 146.206 112.665 146.543 112.66 146.965ZM118.035 145.703C118.035 145.773 117.993 145.809 117.91 145.809L116.801 145.797V147.961C116.801 148.365 116.898 148.604 117.094 148.68C117.154 148.703 117.224 148.715 117.305 148.715C117.385 148.715 117.458 148.702 117.523 148.676C117.591 148.647 117.651 148.617 117.703 148.586C117.755 148.555 117.799 148.526 117.836 148.5C117.872 148.471 117.906 148.457 117.938 148.457C117.971 148.457 118.001 148.475 118.027 148.512C118.053 148.548 118.066 148.585 118.066 148.621C118.066 148.712 117.951 148.822 117.719 148.949C117.542 149.048 117.319 149.098 117.051 149.098C116.783 149.098 116.573 149.003 116.422 148.812C116.271 148.62 116.195 148.354 116.195 148.016V145.785H115.957C115.77 145.785 115.676 145.737 115.676 145.641C115.676 145.57 115.728 145.522 115.832 145.496C115.936 145.47 116.026 145.424 116.102 145.359C116.177 145.292 116.238 145.216 116.285 145.133C116.335 145.047 116.374 144.958 116.402 144.867C116.431 144.776 116.457 144.693 116.48 144.617C116.538 144.445 116.603 144.359 116.676 144.359C116.759 144.359 116.801 144.434 116.801 144.582V145.465L117.898 145.441C117.953 145.441 117.996 145.507 118.027 145.637C118.033 145.665 118.035 145.688 118.035 145.703ZM120.977 148.789C120.857 148.703 120.763 148.609 120.695 148.508C120.628 148.404 120.594 148.323 120.594 148.266C120.594 148.206 120.602 148.161 120.617 148.133C120.635 148.102 120.659 148.073 120.688 148.047C120.755 147.982 120.82 147.949 120.883 147.949C120.948 147.949 120.997 147.965 121.031 147.996C121.065 148.025 121.096 148.083 121.125 148.172C121.156 148.258 121.199 148.341 121.254 148.422C121.311 148.503 121.379 148.573 121.457 148.633C121.626 148.76 121.833 148.824 122.078 148.824C122.294 148.824 122.478 148.771 122.629 148.664C122.788 148.555 122.867 148.418 122.867 148.254C122.867 148.087 122.796 147.941 122.652 147.816C122.499 147.684 122.271 147.557 121.969 147.438C121.667 147.315 121.452 147.212 121.324 147.129C121.197 147.046 121.092 146.957 121.012 146.863C120.858 146.684 120.781 146.478 120.781 146.246C120.781 145.98 120.901 145.759 121.141 145.582C121.383 145.405 121.686 145.316 122.051 145.316C122.366 145.316 122.632 145.383 122.848 145.516C123.035 145.633 123.129 145.757 123.129 145.887C123.129 145.954 123.094 146.013 123.023 146.062C122.956 146.109 122.891 146.133 122.828 146.133C122.768 146.133 122.721 146.121 122.688 146.098C122.654 146.072 122.603 146.007 122.535 145.902C122.402 145.697 122.201 145.594 121.93 145.594C121.625 145.594 121.423 145.685 121.324 145.867C121.296 145.919 121.281 145.975 121.281 146.035C121.281 146.095 121.293 146.154 121.316 146.211C121.342 146.266 121.389 146.323 121.457 146.383C121.6 146.503 121.863 146.642 122.246 146.801C122.996 147.111 123.371 147.508 123.371 147.992C123.371 148.318 123.24 148.583 122.977 148.789C122.711 148.995 122.37 149.098 121.953 149.098C121.583 149.098 121.258 148.995 120.977 148.789ZM126.199 145.703C126.199 145.773 126.158 145.809 126.074 145.809L124.965 145.797V147.961C124.965 148.365 125.062 148.604 125.258 148.68C125.318 148.703 125.388 148.715 125.469 148.715C125.549 148.715 125.622 148.702 125.688 148.676C125.755 148.647 125.815 148.617 125.867 148.586C125.919 148.555 125.964 148.526 126 148.5C126.036 148.471 126.07 148.457 126.102 148.457C126.135 148.457 126.165 148.475 126.191 148.512C126.217 148.548 126.23 148.585 126.23 148.621C126.23 148.712 126.115 148.822 125.883 148.949C125.706 149.048 125.483 149.098 125.215 149.098C124.947 149.098 124.737 149.003 124.586 148.812C124.435 148.62 124.359 148.354 124.359 148.016V145.785H124.121C123.934 145.785 123.84 145.737 123.84 145.641C123.84 145.57 123.892 145.522 123.996 145.496C124.1 145.47 124.19 145.424 124.266 145.359C124.341 145.292 124.402 145.216 124.449 145.133C124.499 145.047 124.538 144.958 124.566 144.867C124.595 144.776 124.621 144.693 124.645 144.617C124.702 144.445 124.767 144.359 124.84 144.359C124.923 144.359 124.965 144.434 124.965 144.582V145.465L126.062 145.441C126.117 145.441 126.16 145.507 126.191 145.637C126.197 145.665 126.199 145.688 126.199 145.703ZM130.246 148.477C130.322 148.477 130.359 148.512 130.359 148.582C130.359 148.65 130.284 148.715 130.133 148.777C129.982 148.84 129.876 148.897 129.816 148.949C129.757 148.999 129.712 149.035 129.684 149.059C129.655 149.085 129.621 149.098 129.582 149.098C129.504 149.098 129.439 149.065 129.387 149C129.335 148.935 129.264 148.796 129.176 148.582C129.027 148.751 128.846 148.88 128.633 148.969C128.422 149.055 128.212 149.098 128.004 149.098C127.611 149.098 127.306 148.997 127.09 148.797C126.874 148.596 126.766 148.322 126.766 147.973C126.766 147.624 126.928 147.341 127.254 147.125C127.582 146.906 128 146.797 128.508 146.797C128.659 146.797 128.858 146.823 129.105 146.875V146.57C129.105 145.901 128.823 145.566 128.258 145.566C127.958 145.566 127.738 145.704 127.598 145.98C127.475 146.228 127.355 146.352 127.238 146.352C127.152 146.352 127.077 146.327 127.012 146.277C126.949 146.228 126.918 146.165 126.918 146.09C126.918 146.014 126.957 145.931 127.035 145.84C127.113 145.746 127.217 145.661 127.348 145.586C127.655 145.406 127.992 145.316 128.359 145.316C129.01 145.316 129.431 145.529 129.621 145.953C129.691 146.104 129.727 146.289 129.727 146.508V148.066C129.727 148.267 129.746 148.396 129.785 148.453C129.824 148.51 129.879 148.539 129.949 148.539C130.02 148.539 130.077 148.529 130.121 148.508C130.165 148.487 130.207 148.477 130.246 148.477ZM129.105 147.238C128.918 147.132 128.681 147.078 128.395 147.078C128.108 147.078 127.878 147.15 127.703 147.293C127.531 147.436 127.445 147.629 127.445 147.871C127.445 148.111 127.512 148.311 127.645 148.473C127.777 148.632 127.948 148.711 128.156 148.711C128.602 148.711 128.922 148.565 129.117 148.273C129.109 148.201 129.105 148.12 129.105 148.031V147.238ZM130.867 149.059C130.693 149.059 130.605 149.01 130.605 148.914C130.605 148.839 130.654 148.801 130.75 148.801L130.945 148.82C131.005 148.82 131.055 148.81 131.094 148.789C131.133 148.766 131.163 148.717 131.184 148.645C131.225 148.512 131.246 148.217 131.246 147.762V146.594C131.246 146.328 131.229 146.163 131.195 146.098C131.164 146.03 131.125 145.984 131.078 145.961C131.034 145.935 130.96 145.914 130.855 145.898C130.754 145.883 130.703 145.842 130.703 145.777C130.703 145.717 130.77 145.674 130.902 145.648C131.212 145.583 131.426 145.518 131.543 145.453C131.702 145.362 131.81 145.316 131.867 145.316C131.927 145.316 131.957 145.346 131.957 145.406C131.957 145.435 131.951 145.465 131.938 145.496C131.927 145.527 131.915 145.565 131.902 145.609C131.882 145.698 131.866 145.865 131.855 146.109C132.082 145.729 132.355 145.492 132.676 145.398C132.77 145.37 132.874 145.355 132.988 145.355C133.105 145.355 133.208 145.397 133.297 145.48C133.388 145.564 133.434 145.652 133.434 145.746C133.434 145.84 133.423 145.909 133.402 145.953C133.382 145.997 133.355 146.035 133.324 146.066C133.257 146.134 133.195 146.168 133.141 146.168C133.089 146.168 133.048 146.155 133.02 146.129C132.991 146.1 132.958 146.049 132.922 145.977C132.857 145.846 132.784 145.781 132.703 145.781C132.622 145.781 132.546 145.799 132.473 145.836C132.4 145.87 132.327 145.922 132.254 145.992C132.095 146.141 131.961 146.342 131.852 146.598V147.762C131.852 148.257 131.865 148.548 131.891 148.637C131.919 148.723 131.953 148.775 131.992 148.793C132.034 148.809 132.09 148.816 132.16 148.816L132.508 148.785C132.56 148.785 132.602 148.798 132.633 148.824C132.664 148.848 132.68 148.878 132.68 148.914C132.68 149.01 132.585 149.059 132.395 149.059L131.57 149C131.438 149 131.311 149.009 131.191 149.027C131.074 149.048 130.966 149.059 130.867 149.059ZM136.02 145.703C136.02 145.773 135.978 145.809 135.895 145.809L134.785 145.797V147.961C134.785 148.365 134.883 148.604 135.078 148.68C135.138 148.703 135.208 148.715 135.289 148.715C135.37 148.715 135.443 148.702 135.508 148.676C135.576 148.647 135.635 148.617 135.688 148.586C135.74 148.555 135.784 148.526 135.82 148.5C135.857 148.471 135.891 148.457 135.922 148.457C135.956 148.457 135.986 148.475 136.012 148.512C136.038 148.548 136.051 148.585 136.051 148.621C136.051 148.712 135.935 148.822 135.703 148.949C135.526 149.048 135.303 149.098 135.035 149.098C134.767 149.098 134.557 149.003 134.406 148.812C134.255 148.62 134.18 148.354 134.18 148.016V145.785H133.941C133.754 145.785 133.66 145.737 133.66 145.641C133.66 145.57 133.712 145.522 133.816 145.496C133.921 145.47 134.01 145.424 134.086 145.359C134.161 145.292 134.223 145.216 134.27 145.133C134.319 145.047 134.358 144.958 134.387 144.867C134.415 144.776 134.441 144.693 134.465 144.617C134.522 144.445 134.587 144.359 134.66 144.359C134.743 144.359 134.785 144.434 134.785 144.582V145.465L135.883 145.441C135.938 145.441 135.98 145.507 136.012 145.637C136.017 145.665 136.02 145.688 136.02 145.703ZM136.98 148.562C136.829 148.393 136.712 148.194 136.629 147.965C136.548 147.736 136.508 147.482 136.508 147.203C136.508 146.922 136.556 146.664 136.652 146.43C136.749 146.195 136.882 145.995 137.051 145.828C137.402 145.482 137.836 145.309 138.352 145.309C138.779 145.309 139.124 145.449 139.387 145.73C139.637 146.001 139.762 146.336 139.762 146.734C139.762 146.865 139.743 146.954 139.707 147.004C139.673 147.051 139.63 147.079 139.578 147.09C139.526 147.098 139.454 147.105 139.363 147.113C139.272 147.118 139.161 147.125 139.031 147.133C138.901 147.141 138.755 147.148 138.594 147.156C138.435 147.164 138.272 147.173 138.105 147.184C137.723 147.207 137.415 147.23 137.184 147.254C137.241 147.954 137.509 148.409 137.988 148.617C138.145 148.685 138.311 148.719 138.488 148.719C138.863 148.719 139.16 148.609 139.379 148.391C139.473 148.297 139.544 148.25 139.594 148.25C139.688 148.25 139.734 148.306 139.734 148.418C139.734 148.475 139.695 148.544 139.617 148.625C139.539 148.706 139.427 148.789 139.281 148.875C139.023 149.023 138.723 149.098 138.379 149.098C138.035 149.098 137.754 149.051 137.535 148.957C137.319 148.861 137.134 148.729 136.98 148.562ZM137.176 146.965C138.397 146.902 139.04 146.836 139.105 146.766C139.129 146.74 139.141 146.663 139.141 146.535C139.141 146.408 139.116 146.284 139.066 146.164C139.017 146.042 138.951 145.938 138.867 145.852C138.695 145.677 138.482 145.59 138.227 145.59C137.938 145.59 137.694 145.711 137.496 145.953C137.288 146.206 137.181 146.543 137.176 146.965ZM143.141 148.652C142.862 148.949 142.496 149.098 142.043 149.098C141.512 149.098 141.092 148.914 140.785 148.547C140.501 148.203 140.359 147.766 140.359 147.234C140.359 146.703 140.534 146.251 140.883 145.879C141.234 145.504 141.672 145.316 142.195 145.316C142.539 145.316 142.827 145.382 143.059 145.512V144.688C143.059 144.443 143.039 144.284 143 144.211C142.961 144.135 142.919 144.085 142.875 144.059C142.831 144.033 142.759 144.012 142.66 143.996C142.564 143.98 142.516 143.94 142.516 143.875C142.516 143.815 142.582 143.772 142.715 143.746C143.027 143.681 143.242 143.615 143.359 143.547C143.518 143.458 143.625 143.414 143.68 143.414C143.74 143.414 143.77 143.444 143.77 143.504C143.77 143.533 143.764 143.562 143.754 143.594C143.699 143.734 143.671 143.913 143.668 144.129C143.665 144.345 143.664 144.521 143.664 144.656V147.855C143.664 148.142 143.681 148.327 143.715 148.41C143.749 148.493 143.783 148.548 143.816 148.574C143.85 148.598 143.891 148.609 143.938 148.609L144.172 148.559C144.247 148.559 144.285 148.592 144.285 148.66C144.285 148.699 144.268 148.732 144.234 148.758C144.203 148.784 144.148 148.814 144.07 148.848C143.992 148.882 143.927 148.917 143.875 148.953C143.823 148.99 143.777 149.023 143.738 149.055C143.65 149.13 143.581 149.168 143.531 149.168C143.362 149.168 143.232 148.996 143.141 148.652ZM143.059 146.094C142.822 145.771 142.493 145.609 142.074 145.609C141.759 145.609 141.507 145.73 141.316 145.973C141.113 146.228 141.012 146.577 141.012 147.02C141.012 147.535 141.143 147.948 141.406 148.258C141.651 148.549 141.944 148.695 142.285 148.695C142.632 148.695 142.896 148.573 143.078 148.328C143.065 148.232 143.059 148.12 143.059 147.992V146.094Z" fill="#151313"/>
<path d="M58.6143 72.7305C58.9014 72.7305 59.0449 72.8125 59.0449 72.9766C59.0449 73.1361 58.9492 73.2158 58.7578 73.2158C58.5208 73.2158 58.3477 73.266 58.2383 73.3662C58.0651 73.5303 57.8988 73.8219 57.7393 74.2412L54.8066 81.9385C54.6927 82.221 54.5833 82.3623 54.4785 82.3623C54.3464 82.3623 54.2233 82.2005 54.1094 81.877L52.4961 77.126L50.4863 81.9385C50.3724 82.221 50.2699 82.3623 50.1787 82.3623C50.0602 82.3623 49.9372 82.2005 49.8096 81.877L46.624 74.2686C46.4326 73.8311 46.2913 73.5622 46.2002 73.4619C46.0498 73.2979 45.8698 73.2158 45.6602 73.2158C45.4551 73.2158 45.3525 73.1338 45.3525 72.9697C45.3525 72.9059 45.389 72.8512 45.4619 72.8057C45.5348 72.7555 45.6351 72.7305 45.7627 72.7305C45.8903 72.7305 45.9951 72.7373 46.0771 72.751C46.1592 72.7601 46.2412 72.7715 46.3232 72.7852C46.5511 72.8216 46.779 72.8398 47.0068 72.8398L48.1895 72.7305C48.4857 72.7305 48.6338 72.8079 48.6338 72.9629C48.6338 73.0267 48.6087 73.0837 48.5586 73.1338C48.5085 73.1839 48.4219 73.209 48.2988 73.209C48.1803 73.209 48.0778 73.2181 47.9912 73.2363C47.9092 73.25 47.8454 73.2728 47.7998 73.3047C47.7269 73.3503 47.6904 73.4277 47.6904 73.5371C47.6904 73.7695 47.7816 74.1022 47.9639 74.5352L50.4453 80.4893L52.1953 76.251L51.5527 74.3438C51.4023 73.9017 51.2588 73.6191 51.1221 73.4961C50.917 73.3184 50.6914 73.2272 50.4453 73.2227C50.1992 73.2135 50.0762 73.1292 50.0762 72.9697C50.0762 72.9059 50.1126 72.8512 50.1855 72.8057C50.2585 72.7555 50.3587 72.7305 50.4863 72.7305C50.6139 72.7305 50.7188 72.7373 50.8008 72.751C50.8828 72.7601 50.9671 72.7715 51.0537 72.7852C51.277 72.8216 51.5026 72.8398 51.7305 72.8398L53.248 72.7305C53.5443 72.7305 53.6924 72.8057 53.6924 72.9561C53.6924 73.1064 53.5693 73.1816 53.3232 73.1816C52.8493 73.1816 52.6123 73.3298 52.6123 73.626C52.6123 73.8949 52.7035 74.2913 52.8857 74.8154L54.8066 80.4277L56.9121 74.5557C57.0443 74.182 57.1104 73.9108 57.1104 73.7422C57.1104 73.3685 56.8278 73.1816 56.2627 73.1816C56.0667 73.1816 55.9688 73.1064 55.9688 72.9561C55.9688 72.8057 56.1169 72.7305 56.4131 72.7305C56.5589 72.7305 56.723 72.7487 56.9053 72.7852C57.0921 72.8216 57.32 72.8398 57.5889 72.8398L58.6143 72.7305ZM60.5693 81.2344C60.305 80.9382 60.0999 80.5895 59.9541 80.1885C59.8128 79.7874 59.7422 79.3431 59.7422 78.8555C59.7422 78.3633 59.8265 77.9121 59.9951 77.502C60.1637 77.0918 60.3962 76.7409 60.6924 76.4492C61.3076 75.8431 62.0664 75.54 62.9688 75.54C63.7161 75.54 64.32 75.7861 64.7803 76.2783C65.2178 76.7523 65.4365 77.3379 65.4365 78.0352C65.4365 78.263 65.4046 78.4202 65.3408 78.5068C65.2816 78.5889 65.2064 78.639 65.1152 78.6572C65.0241 78.6709 64.8988 78.6846 64.7393 78.6982C64.5798 78.7074 64.3861 78.7188 64.1582 78.7324C63.9303 78.7461 63.6751 78.7598 63.3926 78.7734C63.1146 78.7871 62.8298 78.8031 62.5381 78.8213C61.8682 78.8623 61.3304 78.9033 60.9248 78.9443C61.0251 80.1702 61.4945 80.9655 62.333 81.3301C62.6064 81.4486 62.8981 81.5078 63.208 81.5078C63.8643 81.5078 64.3838 81.3164 64.7666 80.9336C64.9307 80.7695 65.056 80.6875 65.1426 80.6875C65.3066 80.6875 65.3887 80.7855 65.3887 80.9814C65.3887 81.0817 65.3203 81.2025 65.1836 81.3438C65.0469 81.485 64.8509 81.6309 64.5957 81.7812C64.1445 82.041 63.6182 82.1709 63.0166 82.1709C62.415 82.1709 61.9229 82.0889 61.54 81.9248C61.1618 81.7562 60.8382 81.526 60.5693 81.2344ZM60.9111 78.4385C63.0485 78.3291 64.1742 78.2129 64.2881 78.0898C64.3291 78.0443 64.3496 77.9098 64.3496 77.6865C64.3496 77.4632 64.3063 77.2467 64.2197 77.0371C64.1331 76.8229 64.0169 76.6406 63.8711 76.4902C63.5703 76.1849 63.1966 76.0322 62.75 76.0322C62.2441 76.0322 61.818 76.2441 61.4717 76.668C61.1071 77.11 60.9202 77.7002 60.9111 78.4385ZM66.7627 82.1025C66.4619 82.1025 66.3115 82.0182 66.3115 81.8496C66.3115 81.7174 66.3958 81.6514 66.5645 81.6514L66.9062 81.6855C67.0111 81.6855 67.0977 81.6673 67.166 81.6309C67.2344 81.5898 67.2868 81.5055 67.3232 81.3779C67.3962 81.1455 67.4326 80.6305 67.4326 79.833V74.7402C67.4326 73.9837 67.2754 73.5827 66.9609 73.5371C66.7331 73.5007 66.6191 73.4255 66.6191 73.3115C66.6191 73.2067 66.7262 73.1338 66.9404 73.0928C67.1546 73.0472 67.3483 72.9925 67.5215 72.9287C67.6947 72.8604 67.8473 72.7965 67.9795 72.7373C68.1117 72.6735 68.2233 72.6188 68.3145 72.5732C68.4102 72.5277 68.4785 72.5049 68.5195 72.5049C68.6243 72.5049 68.6768 72.5573 68.6768 72.6621C68.6768 72.7122 68.6676 72.7646 68.6494 72.8193C68.5537 73.0654 68.5036 73.3776 68.499 73.7559C68.4945 74.1341 68.4922 74.444 68.4922 74.6855V79.833C68.4922 80.6305 68.5195 81.1204 68.5742 81.3027C68.6289 81.4805 68.6904 81.5898 68.7588 81.6309C68.8271 81.6673 68.9137 81.6855 69.0186 81.6855L69.3604 81.6514C69.529 81.6514 69.6133 81.7174 69.6133 81.8496C69.6133 82.0182 69.4629 82.1025 69.1621 82.1025C68.9889 82.1025 68.8089 82.0843 68.6221 82.0479C68.4352 82.016 68.221 82 67.9795 82C67.738 82 67.5169 82.016 67.3164 82.0479C67.1204 82.0843 66.9359 82.1025 66.7627 82.1025ZM70.5293 78.8691C70.5293 78.3861 70.6159 77.9395 70.7891 77.5293C70.9668 77.1146 71.2061 76.7614 71.5068 76.4697C72.1449 75.859 72.9492 75.5537 73.9199 75.5537C74.4941 75.5719 74.9932 75.7064 75.417 75.957C75.8499 76.2077 76.0755 76.5153 76.0938 76.8799C76.0938 77.0758 75.9639 77.2057 75.7041 77.2695C75.6357 77.2832 75.5742 77.29 75.5195 77.29C75.3099 77.29 75.139 77.1465 75.0068 76.8594C74.7471 76.3171 74.3073 76.0459 73.6875 76.0459C73.1406 76.0459 72.6826 76.2715 72.3135 76.7227C71.9215 77.2012 71.7256 77.8324 71.7256 78.6162C71.7256 79.4867 71.9284 80.1862 72.334 80.7148C72.7578 81.2708 73.3366 81.5488 74.0703 81.5488C74.5716 81.5488 75.0114 81.3574 75.3896 80.9746C75.5537 80.8105 75.6768 80.7285 75.7588 80.7285C75.9274 80.7285 76.0117 80.8128 76.0117 80.9814C76.0117 81.1455 75.8499 81.346 75.5264 81.583C75.0023 81.9749 74.3574 82.1709 73.5918 82.1709C72.6758 82.1709 71.9307 81.8587 71.3564 81.2344C70.805 80.6283 70.5293 79.8398 70.5293 78.8691ZM76.9756 78.9648C76.9756 78.5228 77.0553 78.0944 77.2148 77.6797C77.3743 77.265 77.5999 76.9004 77.8916 76.5859C78.5296 75.8978 79.3249 75.5537 80.2773 75.5537C81.3346 75.5537 82.1481 75.8704 82.7178 76.5039C83.2327 77.0781 83.4902 77.8232 83.4902 78.7393C83.4902 79.6644 83.1826 80.4642 82.5674 81.1387C81.9385 81.8268 81.1455 82.1709 80.1885 82.1709C79.1312 82.1709 78.32 81.8542 77.7549 81.2207C77.2354 80.6465 76.9756 79.8945 76.9756 78.9648ZM78.1309 78.6777C78.1309 79.1243 78.1924 79.5413 78.3154 79.9287C78.4385 80.3161 78.6071 80.6374 78.8213 80.8926C79.2451 81.4121 79.7806 81.6719 80.4277 81.6719C81.002 81.6719 81.4691 81.444 81.8291 80.9883C82.2028 80.5143 82.3896 79.9036 82.3896 79.1562C82.3896 78.1673 82.1618 77.3926 81.7061 76.832C81.2777 76.3171 80.7399 76.0596 80.0928 76.0596C79.5186 76.0596 79.0514 76.2874 78.6914 76.7432C78.3177 77.2171 78.1309 77.862 78.1309 78.6777ZM84.8232 82.1025C84.5225 82.1025 84.3721 82.0182 84.3721 81.8496C84.3721 81.7174 84.4564 81.6514 84.625 81.6514L84.9668 81.6855C85.0716 81.6855 85.1582 81.6673 85.2266 81.6309C85.2949 81.5898 85.3473 81.5055 85.3838 81.3779C85.4567 81.1455 85.4932 80.6305 85.4932 79.833V77.7891C85.4932 77.3333 85.4635 77.0462 85.4043 76.9277C85.3451 76.8047 85.2744 76.7227 85.1924 76.6816C85.1149 76.6361 84.9873 76.5996 84.8096 76.5723C84.6318 76.5449 84.543 76.4743 84.543 76.3604C84.543 76.2555 84.6592 76.1803 84.8916 76.1348C85.4339 76.0208 85.8076 75.9069 86.0127 75.793C86.2907 75.6335 86.4798 75.5537 86.5801 75.5537C86.6849 75.5537 86.7373 75.6061 86.7373 75.7109C86.7373 75.7611 86.7259 75.8135 86.7031 75.8682C86.6849 75.9229 86.6644 75.9889 86.6416 76.0664C86.6097 76.1895 86.5846 76.4264 86.5664 76.7773C86.972 76.1895 87.4801 75.8089 88.0908 75.6357C88.2868 75.5811 88.4827 75.5537 88.6787 75.5537C89.7451 75.5537 90.4036 76.0277 90.6543 76.9756C91.0599 76.3011 91.5954 75.8613 92.2607 75.6562C92.4704 75.5879 92.6823 75.5537 92.8965 75.5537C93.5618 75.5537 94.0768 75.7474 94.4414 76.1348C94.806 76.5221 94.9883 77.126 94.9883 77.9463V79.833C94.9883 80.6305 95.0156 81.1204 95.0703 81.3027C95.125 81.4805 95.1865 81.5898 95.2549 81.6309C95.3232 81.6673 95.4098 81.6855 95.5146 81.6855L95.8564 81.6514C96.0251 81.6514 96.1094 81.7174 96.1094 81.8496C96.1094 82.0182 95.9567 82.1025 95.6514 82.1025C95.4782 82.1025 95.2936 82.0843 95.0977 82.0479C94.9017 82.016 94.6898 82 94.4619 82C94.2386 82 94.0244 82.016 93.8193 82.0479C93.6188 82.0843 93.432 82.1025 93.2588 82.1025C92.9535 82.1025 92.8008 82.0182 92.8008 81.8496C92.8008 81.7174 92.8851 81.6514 93.0537 81.6514L93.3955 81.6855C93.5003 81.6855 93.5869 81.6673 93.6553 81.6309C93.7236 81.5898 93.7783 81.5055 93.8193 81.3779C93.8923 81.1501 93.9287 80.6351 93.9287 79.833V78.2744C93.9287 77.2764 93.6598 76.668 93.1221 76.4492C92.9489 76.3809 92.762 76.3467 92.5615 76.3467C92.3656 76.3467 92.181 76.3831 92.0078 76.4561C91.8346 76.5244 91.6729 76.627 91.5225 76.7637C91.1898 77.0599 90.9391 77.4518 90.7705 77.9395V79.833C90.7705 80.6305 90.7979 81.1204 90.8525 81.3027C90.9072 81.4805 90.9688 81.5898 91.0371 81.6309C91.1055 81.6673 91.1921 81.6855 91.2969 81.6855L91.6387 81.6514C91.8073 81.6514 91.8916 81.7174 91.8916 81.8496C91.8916 82.0182 91.7389 82.1025 91.4336 82.1025C91.2604 82.1025 91.0758 82.0843 90.8799 82.0479C90.6839 82.016 90.472 82 90.2441 82C90.0208 82 89.8066 82.016 89.6016 82.0479C89.401 82.0843 89.2142 82.1025 89.041 82.1025C88.7357 82.1025 88.583 82.0182 88.583 81.8496C88.583 81.7174 88.6673 81.6514 88.8359 81.6514L89.1777 81.6855C89.2826 81.6855 89.3691 81.6673 89.4375 81.6309C89.5059 81.5898 89.5605 81.5055 89.6016 81.3779C89.6745 81.1501 89.7109 80.6351 89.7109 79.833V78.2744C89.7109 77.2764 89.4443 76.668 88.9111 76.4492C88.7334 76.3809 88.5443 76.3467 88.3438 76.3467C88.1478 76.3467 87.9632 76.3831 87.79 76.4561C87.6169 76.5244 87.4528 76.627 87.2979 76.7637C86.9697 77.0599 86.7214 77.4518 86.5527 77.9395V79.833C86.5527 80.6305 86.5801 81.1204 86.6348 81.3027C86.6895 81.4805 86.751 81.5898 86.8193 81.6309C86.8877 81.6673 86.9743 81.6855 87.0791 81.6855L87.4209 81.6514C87.5895 81.6514 87.6738 81.7174 87.6738 81.8496C87.6738 82.0182 87.5234 82.1025 87.2227 82.1025C87.0495 82.1025 86.8695 82.0843 86.6826 82.0479C86.4958 82.016 86.2816 82 86.04 82C85.7985 82 85.5775 82.016 85.377 82.0479C85.181 82.0843 84.9964 82.1025 84.8232 82.1025ZM97.6201 81.2344C97.3558 80.9382 97.1507 80.5895 97.0049 80.1885C96.8636 79.7874 96.793 79.3431 96.793 78.8555C96.793 78.3633 96.8773 77.9121 97.0459 77.502C97.2145 77.0918 97.4469 76.7409 97.7432 76.4492C98.3584 75.8431 99.1172 75.54 100.02 75.54C100.767 75.54 101.371 75.7861 101.831 76.2783C102.269 76.7523 102.487 77.3379 102.487 78.0352C102.487 78.263 102.455 78.4202 102.392 78.5068C102.332 78.5889 102.257 78.639 102.166 78.6572C102.075 78.6709 101.95 78.6846 101.79 78.6982C101.631 78.7074 101.437 78.7188 101.209 78.7324C100.981 78.7461 100.726 78.7598 100.443 78.7734C100.165 78.7871 99.8805 78.8031 99.5889 78.8213C98.9189 78.8623 98.3812 78.9033 97.9756 78.9443C98.0758 80.1702 98.5452 80.9655 99.3838 81.3301C99.6572 81.4486 99.9489 81.5078 100.259 81.5078C100.915 81.5078 101.435 81.3164 101.817 80.9336C101.981 80.7695 102.107 80.6875 102.193 80.6875C102.357 80.6875 102.439 80.7855 102.439 80.9814C102.439 81.0817 102.371 81.2025 102.234 81.3438C102.098 81.485 101.902 81.6309 101.646 81.7812C101.195 82.041 100.669 82.1709 100.067 82.1709C99.4658 82.1709 98.9736 82.0889 98.5908 81.9248C98.2126 81.7562 97.889 81.526 97.6201 81.2344ZM97.9619 78.4385C100.099 78.3291 101.225 78.2129 101.339 78.0898C101.38 78.0443 101.4 77.9098 101.4 77.6865C101.4 77.4632 101.357 77.2467 101.271 77.0371C101.184 76.8229 101.068 76.6406 100.922 76.4902C100.621 76.1849 100.247 76.0322 99.8008 76.0322C99.2949 76.0322 98.8688 76.2441 98.5225 76.668C98.1579 77.11 97.971 77.7002 97.9619 78.4385ZM110.964 76.2305C110.964 76.3535 110.891 76.415 110.745 76.415L108.804 76.3945V80.1816C108.804 80.888 108.975 81.3073 109.316 81.4395C109.421 81.4805 109.544 81.501 109.686 81.501C109.827 81.501 109.954 81.4782 110.068 81.4326C110.187 81.3825 110.292 81.3301 110.383 81.2754C110.474 81.2207 110.551 81.1706 110.615 81.125C110.679 81.0749 110.738 81.0498 110.793 81.0498C110.852 81.0498 110.905 81.0817 110.95 81.1455C110.996 81.2093 111.019 81.2731 111.019 81.3369C111.019 81.4964 110.816 81.6878 110.41 81.9111C110.1 82.0843 109.711 82.1709 109.241 82.1709C108.772 82.1709 108.405 82.0046 108.141 81.6719C107.876 81.3346 107.744 80.8698 107.744 80.2773V76.374H107.327C106.999 76.374 106.835 76.2897 106.835 76.1211C106.835 75.998 106.926 75.9137 107.108 75.8682C107.291 75.8226 107.448 75.7428 107.58 75.6289C107.712 75.5104 107.819 75.3783 107.901 75.2324C107.988 75.082 108.056 74.9271 108.106 74.7676C108.157 74.6081 108.202 74.4622 108.243 74.3301C108.343 74.0293 108.457 73.8789 108.585 73.8789C108.731 73.8789 108.804 74.0088 108.804 74.2686V75.8135L110.725 75.7725C110.82 75.7725 110.896 75.8864 110.95 76.1143C110.959 76.1644 110.964 76.2031 110.964 76.2305ZM111.784 78.9648C111.784 78.5228 111.864 78.0944 112.023 77.6797C112.183 77.265 112.409 76.9004 112.7 76.5859C113.338 75.8978 114.133 75.5537 115.086 75.5537C116.143 75.5537 116.957 75.8704 117.526 76.5039C118.041 77.0781 118.299 77.8232 118.299 78.7393C118.299 79.6644 117.991 80.4642 117.376 81.1387C116.747 81.8268 115.954 82.1709 114.997 82.1709C113.94 82.1709 113.129 81.8542 112.563 81.2207C112.044 80.6465 111.784 79.8945 111.784 78.9648ZM112.939 78.6777C112.939 79.1243 113.001 79.5413 113.124 79.9287C113.247 80.3161 113.416 80.6374 113.63 80.8926C114.054 81.4121 114.589 81.6719 115.236 81.6719C115.811 81.6719 116.278 81.444 116.638 80.9883C117.011 80.5143 117.198 79.9036 117.198 79.1562C117.198 78.1673 116.97 77.3926 116.515 76.832C116.086 76.3171 115.549 76.0596 114.901 76.0596C114.327 76.0596 113.86 76.2874 113.5 76.7432C113.126 77.2171 112.939 77.862 112.939 78.6777ZM59.0449 90.8154C59.0449 90.9932 58.9834 91.082 58.8604 91.082C58.751 91.082 58.6598 90.9727 58.5869 90.7539C58.5186 90.5306 58.3864 90.321 58.1904 90.125C57.9945 89.929 57.7598 89.765 57.4863 89.6328C56.9167 89.3548 56.3037 89.2158 55.6475 89.2158C54.9958 89.2158 54.4307 89.3047 53.9521 89.4824C53.4782 89.6556 53.0703 89.9062 52.7285 90.2344C52.0176 90.9316 51.6621 91.8727 51.6621 93.0576C51.6621 94.3701 52.0632 95.4525 52.8652 96.3047C53.6628 97.1523 54.6836 97.5762 55.9277 97.5762C57.3132 97.5762 58.3841 96.9404 59.1406 95.6689C59.1908 95.5869 59.2432 95.5413 59.2979 95.5322C59.348 95.5322 59.3981 95.5869 59.4482 95.6963C59.4984 95.8057 59.5234 95.9287 59.5234 96.0654C59.5234 96.2933 59.3298 96.5895 58.9424 96.9541C58.555 97.3187 58.0833 97.6126 57.5273 97.8359C56.9759 98.0592 56.3311 98.1709 55.5928 98.1709C54.859 98.1709 54.1618 98.0524 53.501 97.8154C52.8447 97.5739 52.2865 97.2458 51.8262 96.8311C50.86 95.9652 50.377 94.8828 50.377 93.584C50.377 92.1165 50.8646 90.9316 51.8398 90.0293C52.8151 89.1224 54.098 88.6689 55.6885 88.6689C56.8369 88.6689 57.7871 88.8216 58.5391 89.127C58.6849 89.1908 58.7806 89.2523 58.8262 89.3115C58.9173 89.4391 58.9697 89.6305 58.9834 89.8857C59.0016 90.1364 59.013 90.3096 59.0176 90.4053C59.0358 90.6286 59.0449 90.7653 59.0449 90.8154ZM66.6465 97.084C66.7786 97.084 66.8447 97.1455 66.8447 97.2686C66.8447 97.387 66.7126 97.501 66.4482 97.6104C66.1839 97.7197 65.9993 97.82 65.8945 97.9111C65.7897 97.9977 65.7122 98.0615 65.6621 98.1025C65.612 98.1481 65.5527 98.1709 65.4844 98.1709C65.3477 98.1709 65.2337 98.1139 65.1426 98C65.0514 97.8861 64.9284 97.6423 64.7734 97.2686C64.5137 97.5648 64.1969 97.7904 63.8232 97.9453C63.4541 98.0957 63.0872 98.1709 62.7227 98.1709C62.0345 98.1709 61.5013 97.9954 61.123 97.6445C60.7448 97.2936 60.5557 96.8128 60.5557 96.2021C60.5557 95.5915 60.8405 95.097 61.4102 94.7188C61.9844 94.3359 62.7158 94.1445 63.6045 94.1445C63.8688 94.1445 64.2174 94.1901 64.6504 94.2812V93.748C64.6504 92.5768 64.1559 91.9912 63.167 91.9912C62.6429 91.9912 62.2578 92.2327 62.0117 92.7158C61.7975 93.1488 61.5879 93.3652 61.3828 93.3652C61.2324 93.3652 61.1003 93.3219 60.9863 93.2354C60.877 93.1488 60.8223 93.0394 60.8223 92.9072C60.8223 92.7751 60.8906 92.6292 61.0273 92.4697C61.1641 92.3057 61.3464 92.1576 61.5742 92.0254C62.112 91.7109 62.7021 91.5537 63.3447 91.5537C64.484 91.5537 65.2201 91.9251 65.5527 92.668C65.6758 92.9323 65.7373 93.2559 65.7373 93.6387V96.3662C65.7373 96.7171 65.7715 96.9427 65.8398 97.043C65.9082 97.1432 66.0039 97.1934 66.127 97.1934C66.25 97.1934 66.3503 97.1751 66.4277 97.1387C66.5052 97.1022 66.5781 97.084 66.6465 97.084ZM64.6504 94.917C64.3223 94.7301 63.9076 94.6367 63.4062 94.6367C62.9049 94.6367 62.5016 94.762 62.1963 95.0127C61.8955 95.2633 61.7451 95.6006 61.7451 96.0244C61.7451 96.4437 61.8613 96.7946 62.0938 97.0771C62.3262 97.3551 62.6247 97.4941 62.9893 97.4941C63.7686 97.4941 64.3291 97.2389 64.6709 96.7285C64.6572 96.6009 64.6504 96.4596 64.6504 96.3047V94.917ZM67.7334 98.1025C67.4281 98.1025 67.2754 98.0182 67.2754 97.8496C67.2754 97.7174 67.3597 97.6514 67.5283 97.6514L67.8701 97.6855C67.9749 97.6855 68.0615 97.6673 68.1299 97.6309C68.1982 97.5898 68.2507 97.5055 68.2871 97.3779C68.36 97.1455 68.3965 96.6305 68.3965 95.833V93.7891C68.3965 93.3242 68.3669 93.0348 68.3076 92.9209C68.2529 92.8024 68.1846 92.7227 68.1025 92.6816C68.0251 92.6361 67.8952 92.5996 67.7129 92.5723C67.5352 92.5449 67.4463 92.4743 67.4463 92.3604C67.4463 92.2555 67.5625 92.1803 67.7949 92.1348C68.3372 92.0208 68.7109 91.9069 68.916 91.793C69.194 91.6335 69.3831 91.5537 69.4834 91.5537C69.5882 91.5537 69.6406 91.6061 69.6406 91.7109C69.6406 91.7611 69.6292 91.8135 69.6064 91.8682C69.5882 91.9229 69.5677 91.9889 69.5449 92.0664C69.5085 92.2214 69.4811 92.513 69.4629 92.9414C69.8594 92.276 70.3379 91.8613 70.8984 91.6973C71.0625 91.6471 71.2448 91.6221 71.4453 91.6221C71.6504 91.6221 71.8304 91.695 71.9854 91.8408C72.1449 91.9867 72.2246 92.1416 72.2246 92.3057C72.2246 92.4697 72.2064 92.5905 72.1699 92.668C72.1335 92.7454 72.0879 92.8115 72.0332 92.8662C71.9147 92.9847 71.8076 93.0439 71.7119 93.0439C71.6208 93.0439 71.5501 93.0212 71.5 92.9756C71.4499 92.9255 71.3929 92.8366 71.3291 92.709C71.2152 92.4811 71.0876 92.3672 70.9463 92.3672C70.805 92.3672 70.6706 92.3991 70.543 92.4629C70.4154 92.5221 70.2878 92.6133 70.1602 92.7363C69.8822 92.9961 69.6475 93.3493 69.4561 93.7959V95.833C69.4561 96.6989 69.4788 97.2093 69.5244 97.3643C69.5745 97.5146 69.6338 97.6058 69.7021 97.6377C69.7751 97.665 69.873 97.6787 69.9961 97.6787L70.6045 97.624C70.6956 97.624 70.7686 97.6468 70.8232 97.6924C70.8779 97.7334 70.9053 97.7858 70.9053 97.8496C70.9053 98.0182 70.7389 98.1025 70.4062 98.1025L68.9639 98C68.7314 98 68.5104 98.016 68.3008 98.0479C68.0957 98.0843 67.9066 98.1025 67.7334 98.1025ZM73.7422 97.2344C73.4779 96.9382 73.2728 96.5895 73.127 96.1885C72.9857 95.7874 72.915 95.3431 72.915 94.8555C72.915 94.3633 72.9993 93.9121 73.168 93.502C73.3366 93.0918 73.569 92.7409 73.8652 92.4492C74.4805 91.8431 75.2393 91.54 76.1416 91.54C76.889 91.54 77.4928 91.7861 77.9531 92.2783C78.3906 92.7523 78.6094 93.3379 78.6094 94.0352C78.6094 94.263 78.5775 94.4202 78.5137 94.5068C78.4544 94.5889 78.3792 94.639 78.2881 94.6572C78.1969 94.6709 78.0716 94.6846 77.9121 94.6982C77.7526 94.7074 77.5589 94.7188 77.3311 94.7324C77.1032 94.7461 76.848 94.7598 76.5654 94.7734C76.2874 94.7871 76.0026 94.8031 75.7109 94.8213C75.041 94.8623 74.5033 94.9033 74.0977 94.9443C74.1979 96.1702 74.6673 96.9655 75.5059 97.3301C75.7793 97.4486 76.071 97.5078 76.3809 97.5078C77.0371 97.5078 77.5566 97.3164 77.9395 96.9336C78.1035 96.7695 78.2288 96.6875 78.3154 96.6875C78.4795 96.6875 78.5615 96.7855 78.5615 96.9814C78.5615 97.0817 78.4932 97.2025 78.3564 97.3438C78.2197 97.485 78.0238 97.6309 77.7686 97.7812C77.3174 98.041 76.791 98.1709 76.1895 98.1709C75.5879 98.1709 75.0957 98.0889 74.7129 97.9248C74.3346 97.7562 74.0111 97.526 73.7422 97.2344ZM74.084 94.4385C76.2214 94.3291 77.347 94.2129 77.4609 94.0898C77.502 94.0443 77.5225 93.9098 77.5225 93.6865C77.5225 93.4632 77.4792 93.2467 77.3926 93.0371C77.306 92.8229 77.1898 92.6406 77.0439 92.4902C76.7432 92.1849 76.3695 92.0322 75.9229 92.0322C75.417 92.0322 74.9909 92.2441 74.6445 92.668C74.2799 93.11 74.0931 93.7002 74.084 94.4385ZM80.0312 98.1025C79.735 98.1025 79.5869 98.0182 79.5869 97.8496C79.5869 97.7174 79.6689 97.6514 79.833 97.6514L80.168 97.6855C80.4414 97.6855 80.6237 97.5329 80.7148 97.2275C80.7969 96.9678 80.8379 96.5029 80.8379 95.833V91.0205C80.8379 90.346 80.806 89.9085 80.7422 89.708C80.6784 89.5029 80.6009 89.3639 80.5098 89.291C80.4232 89.2135 80.3092 89.1748 80.168 89.1748L79.833 89.209C79.6689 89.209 79.5869 89.1406 79.5869 89.0039C79.5869 88.8262 79.735 88.7373 80.0312 88.7373L80.9268 88.8398C81.1182 88.8398 81.2891 88.8262 81.4395 88.7988L87.7354 96.1201V91.0068C87.7354 90.3415 87.6989 89.904 87.626 89.6943C87.5576 89.4847 87.4779 89.3434 87.3867 89.2705C87.2956 89.193 87.1771 89.1543 87.0312 89.1543L86.6963 89.1816C86.5322 89.1816 86.4502 89.1156 86.4502 88.9834C86.4502 88.8148 86.5983 88.7305 86.8945 88.7305C87.0085 88.7305 87.1611 88.7464 87.3525 88.7783C87.5941 88.8193 87.8128 88.8398 88.0088 88.8398C88.2048 88.8398 88.3962 88.8216 88.583 88.7852C88.7699 88.7487 88.9886 88.7305 89.2393 88.7305C89.4899 88.7305 89.6152 88.8148 89.6152 88.9834C89.6152 89.1156 89.5332 89.1816 89.3691 89.1816L89.0342 89.1543C88.7562 89.1543 88.5716 89.307 88.4805 89.6123C88.403 89.8538 88.3643 90.3187 88.3643 91.0068V97.9111C88.3643 98.0661 88.3506 98.1686 88.3232 98.2188C88.2959 98.2689 88.2526 98.2939 88.1934 98.2939C88.1113 98.2939 87.9814 98.1982 87.8037 98.0068L81.501 90.7061V95.833C81.501 96.5212 81.5306 96.9655 81.5898 97.166C81.6536 97.362 81.7288 97.4987 81.8154 97.5762C81.9066 97.6491 82.0251 97.6855 82.1709 97.6855L82.499 97.6514C82.6631 97.6514 82.7451 97.7174 82.7451 97.8496C82.7451 98.0182 82.613 98.1025 82.3486 98.1025C82.0889 98.1025 81.8564 98.0843 81.6514 98.0479C81.4508 98.016 81.2549 98 81.0635 98C80.8721 98 80.6829 98.016 80.4961 98.0479C80.3138 98.0843 80.1589 98.1025 80.0312 98.1025ZM91.1191 97.2344C90.8548 96.9382 90.6497 96.5895 90.5039 96.1885C90.3626 95.7874 90.292 95.3431 90.292 94.8555C90.292 94.3633 90.3763 93.9121 90.5449 93.502C90.7135 93.0918 90.946 92.7409 91.2422 92.4492C91.8574 91.8431 92.6162 91.54 93.5186 91.54C94.266 91.54 94.8698 91.7861 95.3301 92.2783C95.7676 92.7523 95.9863 93.3379 95.9863 94.0352C95.9863 94.263 95.9544 94.4202 95.8906 94.5068C95.8314 94.5889 95.7562 94.639 95.665 94.6572C95.5739 94.6709 95.4486 94.6846 95.2891 94.6982C95.1296 94.7074 94.9359 94.7188 94.708 94.7324C94.4801 94.7461 94.2249 94.7598 93.9424 94.7734C93.6644 94.7871 93.3796 94.8031 93.0879 94.8213C92.418 94.8623 91.8802 94.9033 91.4746 94.9443C91.5749 96.1702 92.0443 96.9655 92.8828 97.3301C93.1562 97.4486 93.4479 97.5078 93.7578 97.5078C94.4141 97.5078 94.9336 97.3164 95.3164 96.9336C95.4805 96.7695 95.6058 96.6875 95.6924 96.6875C95.8564 96.6875 95.9385 96.7855 95.9385 96.9814C95.9385 97.0817 95.8701 97.2025 95.7334 97.3438C95.5967 97.485 95.4007 97.6309 95.1455 97.7812C94.6943 98.041 94.168 98.1709 93.5664 98.1709C92.9648 98.1709 92.4727 98.0889 92.0898 97.9248C91.7116 97.7562 91.388 97.526 91.1191 97.2344ZM91.4609 94.4385C93.5983 94.3291 94.724 94.2129 94.8379 94.0898C94.8789 94.0443 94.8994 93.9098 94.8994 93.6865C94.8994 93.4632 94.8561 93.2467 94.7695 93.0371C94.6829 92.8229 94.5667 92.6406 94.4209 92.4902C94.1201 92.1849 93.7464 92.0322 93.2998 92.0322C92.7939 92.0322 92.3678 92.2441 92.0215 92.668C91.6569 93.11 91.4701 93.7002 91.4609 94.4385ZM97.7295 97.6309C97.5199 97.4805 97.3558 97.3164 97.2373 97.1387C97.1188 96.9564 97.0596 96.8151 97.0596 96.7148C97.0596 96.61 97.0732 96.5326 97.1006 96.4824C97.1325 96.4277 97.1735 96.3776 97.2236 96.332C97.3421 96.2181 97.4561 96.1611 97.5654 96.1611C97.6794 96.1611 97.766 96.1885 97.8252 96.2432C97.8844 96.2933 97.9391 96.3958 97.9893 96.5508C98.0439 96.7012 98.1191 96.847 98.2148 96.9883C98.3151 97.1296 98.4336 97.2526 98.5703 97.3574C98.8665 97.5807 99.2288 97.6924 99.6572 97.6924C100.035 97.6924 100.357 97.599 100.621 97.4121C100.899 97.2207 101.038 96.9814 101.038 96.6943C101.038 96.4027 100.913 96.1475 100.662 95.9287C100.393 95.6963 99.9945 95.4753 99.4658 95.2656C98.9372 95.0514 98.5612 94.8714 98.3379 94.7256C98.1146 94.5798 97.9323 94.4248 97.791 94.2607C97.5221 93.9463 97.3877 93.5863 97.3877 93.1807C97.3877 92.7158 97.5973 92.3285 98.0166 92.0186C98.4404 91.7087 98.9714 91.5537 99.6094 91.5537C100.161 91.5537 100.626 91.6699 101.004 91.9023C101.332 92.1074 101.496 92.3239 101.496 92.5518C101.496 92.6702 101.435 92.7728 101.312 92.8594C101.193 92.9414 101.079 92.9824 100.97 92.9824C100.865 92.9824 100.783 92.9619 100.724 92.9209C100.664 92.8753 100.576 92.7614 100.457 92.5791C100.225 92.2191 99.8714 92.0391 99.3975 92.0391C98.8643 92.0391 98.5111 92.1986 98.3379 92.5176C98.2878 92.6087 98.2627 92.7067 98.2627 92.8115C98.2627 92.9163 98.2832 93.0189 98.3242 93.1191C98.3698 93.2148 98.4518 93.3151 98.5703 93.4199C98.821 93.6296 99.2812 93.8734 99.9512 94.1514C101.264 94.6937 101.92 95.3887 101.92 96.2363C101.92 96.806 101.69 97.2708 101.229 97.6309C100.765 97.9909 100.168 98.1709 99.4385 98.1709C98.7913 98.1709 98.2217 97.9909 97.7295 97.6309ZM106.869 92.2305C106.869 92.3535 106.796 92.415 106.65 92.415L104.709 92.3945V96.1816C104.709 96.888 104.88 97.3073 105.222 97.4395C105.326 97.4805 105.45 97.501 105.591 97.501C105.732 97.501 105.86 97.4782 105.974 97.4326C106.092 97.3825 106.197 97.3301 106.288 97.2754C106.379 97.2207 106.457 97.1706 106.521 97.125C106.584 97.0749 106.644 97.0498 106.698 97.0498C106.757 97.0498 106.81 97.0817 106.855 97.1455C106.901 97.2093 106.924 97.2731 106.924 97.3369C106.924 97.4964 106.721 97.6878 106.315 97.9111C106.006 98.0843 105.616 98.1709 105.146 98.1709C104.677 98.1709 104.31 98.0046 104.046 97.6719C103.782 97.3346 103.649 96.8698 103.649 96.2773V92.374H103.232C102.904 92.374 102.74 92.2897 102.74 92.1211C102.74 91.998 102.831 91.9137 103.014 91.8682C103.196 91.8226 103.353 91.7428 103.485 91.6289C103.618 91.5104 103.725 91.3783 103.807 91.2324C103.893 91.082 103.962 90.9271 104.012 90.7676C104.062 90.6081 104.107 90.4622 104.148 90.3301C104.249 90.0293 104.363 89.8789 104.49 89.8789C104.636 89.8789 104.709 90.0088 104.709 90.2686V91.8135L106.63 91.7725C106.726 91.7725 106.801 91.8864 106.855 92.1143C106.865 92.1644 106.869 92.2031 106.869 92.2305ZM113.35 88.8193C113.076 90.9932 112.901 93.2445 112.823 95.5732C112.814 95.7783 112.743 95.8809 112.611 95.8809C112.548 95.8809 112.491 95.8558 112.44 95.8057C112.395 95.7555 112.372 95.6781 112.372 95.5732C112.349 93.8506 112.181 91.7588 111.866 89.2979L111.859 89.25C111.859 89.1315 111.919 89.0426 112.037 88.9834C112.16 88.9196 112.315 88.8626 112.502 88.8125C112.867 88.7168 113.099 88.6689 113.199 88.6689C113.299 88.6689 113.35 88.7191 113.35 88.8193ZM112.611 98.1709C112.397 98.1709 112.229 98.1071 112.105 97.9795C111.987 97.8473 111.928 97.7061 111.928 97.5557C111.928 97.4007 111.946 97.2822 111.982 97.2002C112.023 97.1182 112.078 97.0475 112.146 96.9883C112.283 96.8652 112.45 96.8037 112.646 96.8037C112.846 96.8037 113.008 96.8675 113.131 96.9951C113.254 97.1227 113.315 97.2845 113.315 97.4805C113.315 97.6719 113.252 97.8359 113.124 97.9727C112.996 98.1048 112.826 98.1709 112.611 98.1709Z" fill="white"/>
</g>
<defs>
<clipPath id="clip0_40_9">
<rect width="163" height="355" fill="white"/>
</clipPath>
</defs>
</svg>
